<svg width="535" height="387" viewBox="0 0 535 387" fill="none" xmlns="http://www.w3.org/2000/svg">
<path d="M293.972 185.307C292.112 185.307 290.338 184.552 288.932 183.151L291.585 179.771C292.309 180.493 293.231 180.861 294.204 180.787C295.169 180.72 296.053 180.234 296.693 179.418C297.334 178.601 297.654 177.553 297.596 176.465C297.536 175.378 297.105 174.381 296.38 173.659L299.033 170.279C300.558 171.799 301.466 173.898 301.591 176.189C301.716 178.48 301.04 180.689 299.691 182.408C298.343 184.126 296.481 185.151 294.449 185.291C294.289 185.302 294.131 185.307 293.972 185.307Z" fill="#CFE0EE"/>
<path d="M458.83 185.369C457.834 185.369 456.839 185.145 455.892 184.699C454.014 183.815 452.553 182.159 451.78 180.035C451.007 177.912 451.013 175.577 451.797 173.458C452.582 171.341 454.052 169.694 455.935 168.823L457.456 172.997C456.562 173.411 455.864 174.193 455.492 175.198C455.119 176.204 455.116 177.313 455.483 178.321C455.85 179.329 456.544 180.115 457.435 180.536C458.328 180.956 459.311 180.958 460.205 180.545L461.726 184.719C460.792 185.152 459.811 185.369 458.83 185.369Z" fill="#E6BB79"/>
<path d="M172.154 88.2654C171.158 88.2654 170.162 88.0421 169.216 87.5958C167.337 86.7115 165.877 85.0548 165.103 82.932C163.507 78.5481 165.372 73.5182 169.259 71.7192L170.78 75.8934C168.934 76.7478 168.048 79.1366 168.806 81.2182C169.565 83.2989 171.683 84.296 173.529 83.4421L175.05 87.6162C174.115 88.0489 173.134 88.2654 172.154 88.2654Z" fill="#E6BB79"/>
<path d="M63.4478 218.398C61.4075 218.399 59.3732 217.484 57.8743 215.675L60.8003 212.594C62.1618 214.237 64.4553 214.327 65.9157 212.792C67.374 211.257 67.4524 208.67 66.0905 207.026L69.0165 203.946C71.885 207.409 71.7194 212.857 68.6476 216.091C67.1807 217.634 65.312 218.398 63.4478 218.398Z" fill="#CFE0EE"/>
<path d="M171.83 101.979C168.708 101.979 168.707 107.441 171.83 107.441C174.952 107.441 174.953 101.979 171.83 101.979Z" fill="#E8EFF8"/>
<path d="M271.681 222.529C268.558 222.529 268.558 227.991 271.681 227.991C274.803 227.991 274.803 222.529 271.681 222.529Z" fill="#E8EFF8"/>
<path d="M388.282 89.6333C385.16 89.6333 385.159 95.0949 388.282 95.0949C391.404 95.0949 391.405 89.6333 388.282 89.6333Z" fill="#E8EFF8"/>
<path d="M89.3726 22.0967C86.2509 22.0967 86.2497 27.5583 89.3726 27.5583C92.4947 27.5583 92.4959 22.0967 89.3726 22.0967Z" fill="#E8EFF8"/>
<path d="M50.0744 2.84961C45.7037 2.84961 45.7021 10.4957 50.0744 10.4957C54.4447 10.4957 54.4467 2.84961 50.0744 2.84961Z" fill="#E8EFF8"/>
<path d="M442.397 60.9453C438.027 60.9453 438.025 68.5914 442.397 68.5914C446.768 68.5914 446.77 60.9453 442.397 60.9453Z" fill="#E8EFF8"/>
<path d="M391.587 149.239L392.444 143.434L393.364 149.227C393.65 151.025 394.908 152.426 396.506 152.726L401.657 153.692L396.518 154.73C394.923 155.052 393.68 156.47 393.414 158.272L392.556 164.077L391.636 158.284C391.35 156.486 390.092 155.085 388.494 154.785L383.344 153.819L388.483 152.781C390.078 152.459 391.321 151.041 391.587 149.239Z" fill="#E6BB79"/>
<path d="M118.46 85.4281L119.253 80.0598L120.104 85.4163C120.368 87.0794 121.531 88.3746 123.009 88.6518L127.771 89.5452L123.019 90.5047C121.545 90.8023 120.395 92.1134 120.149 93.78L119.356 99.1483L118.506 93.7909C118.242 92.1292 117.079 90.8331 115.601 90.5559L110.838 89.663L115.59 88.703C117.065 88.4054 118.214 87.0939 118.46 85.4281Z" fill="#E6BB79"/>
<path d="M183.65 99.8418C178.903 99.8418 178.901 108.146 183.65 108.146C188.396 108.146 188.398 99.8418 183.65 99.8418Z" fill="white"/>
<path d="M455.744 30.9189C450.997 30.9189 450.996 39.2228 455.744 39.2228C460.491 39.2228 460.492 30.9189 455.744 30.9189Z" fill="white"/>
<path d="M365.465 225.21C360.719 225.21 360.717 233.513 365.465 233.513C370.211 233.513 370.213 225.21 365.465 225.21Z" fill="white"/>
<path d="M102.442 0.960693C97.6952 0.960693 97.6932 9.26458 102.442 9.26458C107.188 9.26458 107.19 0.960693 102.442 0.960693Z" fill="white"/>
<path d="M250.564 99.6648C247.852 99.6648 247.85 104.41 250.564 104.41C253.276 104.41 253.277 99.6648 250.564 99.6648Z" fill="white"/>
<path d="M334.59 80.2798C331.878 80.2798 331.877 85.0247 334.59 85.0247C337.302 85.0247 337.304 80.2798 334.59 80.2798Z" fill="white"/>
<path d="M354.131 12.873C351.419 12.873 351.418 17.618 354.131 17.618C356.843 17.618 356.845 12.873 354.131 12.873Z" fill="white"/>
<path d="M408.846 150.77C406.134 150.77 406.133 155.515 408.846 155.515C411.559 155.515 411.56 150.77 408.846 150.77Z" fill="white"/>
<path d="M329.118 167.512C326.406 167.512 326.405 172.257 329.118 172.257C331.83 172.257 331.832 167.512 329.118 167.512Z" fill="white"/>
<path d="M198.585 242.849C195.872 242.849 195.871 247.594 198.585 247.594C201.297 247.594 201.298 242.849 198.585 242.849Z" fill="white"/>
<path d="M107.134 146.806C104.422 146.806 104.42 151.55 107.134 151.55C109.846 151.55 109.847 146.806 107.134 146.806Z" fill="white"/>
<path d="M53.5895 63.0977C50.8773 63.0977 50.8761 67.8426 53.5895 67.8426C56.3018 67.8426 56.303 63.0977 53.5895 63.0977Z" fill="white"/>
<path d="M455.354 110.679C452.642 110.679 452.641 115.424 455.354 115.424C458.066 115.424 458.067 110.679 455.354 110.679Z" fill="white"/>
<path d="M302.699 352.686C302.699 352.686 319.656 358.108 327.695 358.476L337.323 363.428C338.603 364.087 338.965 365.946 338.046 367.147C337.53 367.823 336.723 368.116 335.954 367.908L327.377 365.586L305.793 365.772L302.699 352.686Z" fill="#F1C6C4"/>
<path d="M297.019 364.165C297.951 370.056 309.838 367.912 313.96 367.912C317.071 367.912 322.984 367.77 325.694 367.702C326.55 367.679 327.302 367.06 327.582 366.148C328 364.787 327.224 363.332 325.962 363.109L316.331 361.411L301.625 352.367L297.019 364.165Z" fill="#F1C6C4"/>
<path d="M307.815 354.444L327.696 357.057L333.742 363.579C334.498 364.395 334.577 365.727 333.924 366.648C333.265 367.577 332.085 367.78 331.211 367.113L325.963 363.109L307.815 363.599V354.444Z" fill="#F1C6C4"/>
<path d="M296.027 237.336C303.687 271.432 307.041 340.276 307.041 340.276L284.55 339.079L282.203 243.839L296.027 237.336Z" fill="#F1C6C4"/>
<path d="M225.503 234.299C214.259 269.372 217.457 303.11 202.648 357.038L215.82 364.166C233.685 328.704 243.328 244.641 243.328 244.641L225.503 234.299Z" fill="#F1C6C4"/>
<path d="M210.141 352.686C210.141 352.686 193.184 358.108 185.145 358.476L175.517 363.428C174.237 364.087 173.875 365.946 174.793 367.147C175.309 367.823 176.117 368.116 176.887 367.908L185.463 365.586L207.047 365.772L210.141 352.686Z" fill="#F1C6C4"/>
<path d="M215.82 364.165C214.888 370.057 203 367.912 198.879 367.912C195.768 367.912 189.854 367.771 187.145 367.702C186.288 367.68 185.537 367.06 185.257 366.148C184.84 364.787 185.615 363.332 186.877 363.109L196.508 361.411L211.214 352.367L215.82 364.165Z" fill="#F1C6C4"/>
<path d="M205.026 354.444L185.145 357.057L179.099 363.579C178.343 364.395 178.264 365.727 178.918 366.648C179.576 367.577 180.757 367.78 181.63 367.113L186.879 363.109L205.026 363.599V354.444Z" fill="#F1C6C4"/>
<path d="M233.693 296.364L223.165 336.179C223.165 336.179 221.393 367.927 255.889 367.213C290.385 366.499 296.024 342.788 296.024 342.788L281.11 296.364H233.693Z" fill="#3B3A3C"/>
<path d="M227.232 321.926C226.761 324.646 226.493 325.855 226.493 325.855C226.493 325.855 252.809 340.376 293.37 325.049L292.98 319.812L290.284 284.003L290.3 283.994L291.802 283.408L292.087 283.298L308.827 276.725C308.168 273.95 307.526 271.304 306.902 268.786C301.744 247.957 297.813 235.715 293.784 231.705C290.341 228.28 284.712 229.059 276.712 232.794C272.123 234.928 266.763 238.04 260.581 241.886C260.581 241.886 254.246 237.152 246.799 233.343C239.992 229.855 232.26 227.137 227.614 229.517C221.539 232.62 216.259 255.245 213.815 267.413C212.897 272.009 212.377 275.113 212.377 275.113L230.059 280.359L232.049 280.945L232.284 281.018L232.365 281.046C230.156 303.469 228.231 316.122 227.232 321.926Z" fill="#FF6C0E"/>
<path d="M226.492 325.854C226.492 325.854 252.807 340.376 293.369 325.049L292.979 319.811C272.512 324.096 240.917 322.778 227.231 321.926C226.76 324.645 226.492 325.854 226.492 325.854Z" fill="#FFC5A0"/>
<path d="M290.918 276.861L291.803 283.408L292.087 283.297L308.827 276.724C308.169 273.95 307.527 271.303 306.902 268.785L290.918 276.861Z" fill="#FFC5A0"/>
<path d="M246.025 238.837C246.025 248.689 253.1 256.664 261.831 256.664C270.562 256.664 277.644 248.689 277.644 238.837C277.644 236.713 277.311 234.68 276.71 232.794C272.121 234.928 266.761 238.04 260.58 241.886C260.58 241.886 254.245 237.152 246.797 233.343C246.293 235.074 246.025 236.923 246.025 238.837Z" fill="#FFC5A0"/>
<path d="M248.148 300.909C249.277 300.127 251.05 300.371 252.348 300.244C253.741 300.107 255.13 299.926 256.514 299.708C259.314 299.265 262.08 298.634 264.824 297.875C270.335 296.349 275.685 294.274 280.773 291.427C282.013 290.733 283.085 292.801 281.845 293.555C276.682 296.692 271.231 299.325 265.581 301.128C262.753 302.031 259.858 302.712 256.954 303.223C255.548 303.471 254.132 303.666 252.715 303.825C251.275 303.986 249.483 304.47 248.148 303.734C247.118 303.165 247.268 301.519 248.148 300.909Z" fill="#FFC5A0"/>
<path d="M248.202 291.592C249.413 291.085 250.992 291.717 252.248 291.852C253.641 292.002 255.044 292.085 256.443 292.086C259.184 292.089 261.949 291.809 264.63 291.165C265.912 290.856 266.416 292.97 265.148 293.393C262.295 294.342 259.412 294.984 256.443 295.22C254.994 295.336 253.544 295.358 252.093 295.273C250.592 295.185 248.802 295.253 247.589 294.143C246.713 293.342 247.351 291.948 248.202 291.592Z" fill="#FFC5A0"/>
<path d="M249.3 329.603C243.853 321.558 209.183 283.574 198.675 302.037C188.166 320.501 201.538 347.566 225.56 360.614C249.583 373.661 270.2 360.471 249.3 329.603Z" fill="#3B3A3C"/>
<path d="M197.372 316.496C200.858 325.544 206.611 333.176 212.968 339.834C216.316 343.34 219.886 346.566 223.537 349.66C227.051 352.637 230.6 355.604 234.248 358.369C237.897 361.134 241.808 363.379 246.285 363.572C247.271 363.614 247.157 365.163 246.229 365.249C242.18 365.629 238.294 363.538 234.937 361.189C231.206 358.578 227.681 355.534 224.154 352.592C216.78 346.441 209.593 339.834 204.052 331.516C201.036 326.989 198.569 322.125 196.848 316.8C196.723 316.41 197.218 316.094 197.372 316.496Z" fill="#474747"/>
<path d="M238.568 316.993C244.859 322.409 250.382 329.141 254.211 336.997C255.293 339.218 256.258 341.509 257.107 343.856C257.525 345.013 255.946 345.817 255.531 344.651C252.636 336.52 248.405 329.007 243.067 322.64C241.549 320.83 239.946 319.093 238.241 317.508C237.965 317.251 238.278 316.743 238.568 316.993Z" fill="#474747"/>
<path d="M301.144 382.82L311.286 353.382C307.727 352.192 304.652 351.845 304.652 351.845L291.472 380.035C299.283 383.525 301.144 382.82 301.144 382.82Z" fill="white"/>
<path d="M294.557 377.888C293.602 378.735 292.576 379.463 291.475 380.049C290.049 379.408 288.197 378.505 285.918 377.413C283.801 376.395 281.315 375.181 278.483 373.822C275.416 372.345 271.932 370.69 268.046 368.897C267.956 363.512 268.562 357.555 270.082 352.401L270.092 352.4C277.942 354.155 290.472 352.023 299.497 351.658C301.822 351.557 303.652 351.593 304.647 351.85C305.703 353.306 303.233 370.226 294.557 377.888Z" fill="#474747"/>
<path d="M255.16 346.739C253.998 346.126 252.762 345.458 251.428 344.696C252.762 345.458 253.999 346.137 255.16 346.739Z" fill="#DF9449"/>
<path d="M243.39 339.964L243.391 339.975C243.826 340.238 244.252 340.491 244.668 340.746C244.251 340.48 243.825 340.227 243.39 339.964Z" fill="#DF9449"/>
<path d="M270.083 352.401C268.563 357.555 267.956 363.511 268.047 368.897C261.405 365.822 252.754 364.912 243.968 361.237L243.388 339.975C243.824 340.238 244.249 340.491 244.665 340.746C245.506 341.254 246.323 341.733 247.101 342.196C247.869 342.66 248.615 343.095 249.338 343.512L249.348 343.51C250.063 343.928 250.756 344.327 251.416 344.698L251.426 344.697C252.76 345.459 253.997 346.138 255.157 346.74C257.193 347.814 258.982 348.672 260.659 349.395C261.127 349.598 261.593 349.791 262.049 349.975C262.281 350.061 262.514 350.157 262.745 350.232C263.191 350.417 263.634 350.57 264.076 350.723C264.298 350.799 264.519 350.876 264.75 350.951C265.181 351.094 265.613 351.238 266.053 351.369C267.372 351.753 268.686 352.094 270.083 352.401Z" fill="#F1C6C4"/>
<path d="M243.971 361.236L243.391 339.975L243.39 339.964L243.38 339.966L243.971 361.236Z" fill="#F1C6C4"/>
<path d="M286.026 377.481C283.844 376.428 281.287 375.183 278.378 373.789C280.752 372.884 285.003 373.902 286.026 377.481Z" fill="white"/>
<path d="M304.654 351.851C306.927 355.62 304.357 372.077 294.565 377.889C291.036 366.255 294.956 351.2 304.654 351.851Z" fill="white"/>
<path d="M270.733 345.015C269.746 345.101 269.046 345.986 268.83 347.146C268.358 349.688 270.006 352.843 271.345 354.809C272.676 356.764 274.302 358.299 276.122 359.324C274.653 359.406 273.231 359.791 271.91 360.542C269.998 361.63 268.128 363.444 267.187 365.823C266.339 367.963 266.647 371.351 268.857 372.405C271.052 373.452 273.183 371.219 274.54 369.576C276.125 367.654 277.571 365.012 278.162 362.18C278.031 364.056 278.09 365.972 278.279 367.878C278.309 368.181 278.655 368.155 278.648 367.864C278.593 365.735 278.755 363.642 279.028 361.581C279.162 360.565 279.335 359.561 279.559 358.58C279.773 357.648 280.176 356.688 280.268 355.714C280.312 355.241 279.779 354.857 279.544 355.258C279.151 355.927 278.971 356.855 278.804 357.701C278.467 353.331 276.311 348.747 273.368 346.193C272.598 345.525 271.65 344.935 270.733 345.015ZM274.934 367.17C273.829 368.921 272.189 371.107 270.273 371.448C269.311 371.62 268.394 371.076 267.94 369.904C267.461 368.667 267.653 367.337 268.122 366.258C269.005 364.224 270.629 362.69 272.288 361.711C273.905 360.756 275.729 360.305 277.585 360.332C277.58 360.346 277.571 360.353 277.566 360.369C276.882 362.83 276.224 365.128 274.934 367.17ZM273.219 347.413C274.647 348.842 275.824 350.687 276.634 352.708C277.453 354.75 277.854 356.935 278.015 359.127C277.987 359.107 277.963 359.083 277.931 359.069C276.078 358.285 274.339 356.902 272.918 355.159C271.575 353.513 270.303 351.27 269.856 349.02C269.623 347.852 269.812 346.287 270.925 346.177C271.74 346.097 272.579 346.772 273.219 347.413Z" fill="white"/>
<path d="M282.498 356.993C281.389 360.851 281.463 365.364 282.42 369.493C282.496 369.82 282.94 369.729 282.878 369.396C282.505 367.383 282.341 365.323 282.391 363.307C282.442 361.265 282.763 359.352 283.206 357.438C283.247 357.258 283.238 356.996 283.082 356.864C283.022 356.814 282.973 356.77 282.903 356.751C282.742 356.707 282.553 356.801 282.498 356.993Z" fill="white"/>
<path d="M287.018 356.92C285.549 360.619 284.876 364.993 284.814 369.244C284.806 369.739 285.414 369.936 285.444 369.424C285.566 367.35 285.822 365.293 286.201 363.298C286.59 361.251 287.185 359.342 287.8 357.413C287.996 356.801 287.249 356.337 287.018 356.92Z" fill="white"/>
<path d="M290.995 357.046C290.954 357.055 290.913 357.065 290.872 357.074C290.73 357.106 290.661 357.284 290.629 357.439C290.412 358.485 290.094 359.483 289.89 360.537C289.686 361.589 289.524 362.658 289.4 363.738C289.156 365.868 289.084 368.015 289.184 370.203C289.203 370.628 289.788 370.709 289.79 370.278C289.798 368.154 289.913 366.028 290.17 363.958C290.294 362.957 290.452 361.967 290.644 360.991C290.854 359.918 291.045 358.787 291.399 357.788C291.456 357.629 291.431 357.434 291.344 357.283C291.323 357.246 291.302 357.209 291.281 357.172C291.209 357.048 291.099 357.022 290.995 357.046Z" fill="white"/>
<path d="M243.185 363.265L255.388 366.577L261.094 347.148L240.575 333.626L243.185 363.265Z" fill="#3B3A3C"/>
<path d="M303.618 314.403C294.958 317.072 250.709 339.028 261.942 356.941C273.175 374.854 300.449 371.049 320.198 350.851C339.946 330.653 336.845 304.159 303.618 314.403Z" fill="#3B3A3C"/>
<path d="M222.128 386.204L211.062 357.191C214.582 355.86 217.645 355.39 217.645 355.39L231.706 383.033C224.01 386.834 222.128 386.204 222.128 386.204Z" fill="white"/>
<path d="M252.205 354.556C253.887 359.645 254.682 365.574 254.762 370.96C250.935 372.908 247.506 374.702 244.486 376.301C241.7 377.773 239.253 379.086 237.17 380.188C234.927 381.371 233.104 382.348 231.7 383.045C230.581 382.503 229.532 381.818 228.551 381.009C219.639 373.701 216.636 356.891 217.645 355.393C218.632 355.096 220.459 354.987 222.786 354.995C231.817 354.998 244.406 356.624 252.196 354.555L252.205 354.556Z" fill="#474747"/>
<path d="M266.94 348.3C268.082 347.641 269.295 346.924 270.604 346.109C269.295 346.924 268.081 347.651 266.94 348.3Z" fill="#DF9449"/>
<path d="M278.492 341.056L278.49 341.067C278.063 341.347 277.646 341.617 277.239 341.889C277.647 341.607 278.064 341.336 278.492 341.056Z" fill="#DF9449"/>
<path d="M278.583 362.339C269.918 366.365 261.301 367.62 254.761 370.96C254.682 365.574 253.887 359.646 252.205 354.556C253.592 354.194 254.894 353.8 256.2 353.364C256.636 353.215 257.063 353.054 257.49 352.893C257.718 352.809 257.937 352.723 258.155 352.638C258.593 352.468 259.03 352.298 259.47 352.095C259.698 352.011 259.928 351.905 260.157 351.81C260.607 351.608 261.067 351.397 261.529 351.174C263.181 350.385 264.942 349.455 266.942 348.301C268.083 347.652 269.298 346.924 270.607 346.108C270.607 346.108 270.616 346.12 270.617 346.11C271.265 345.712 271.945 345.285 272.646 344.839L272.655 344.84C273.366 344.395 274.097 343.93 274.85 343.435C275.612 342.941 276.415 342.431 277.239 341.889C277.647 341.618 278.063 341.347 278.491 341.067L278.583 362.339Z" fill="#F1C6C4"/>
<path d="M278.583 362.339L278.491 341.067L278.492 341.056L278.501 341.057L278.583 362.339Z" fill="#F1C6C4"/>
<path d="M237.069 380.261C239.216 379.121 241.731 377.775 244.594 376.265C242.194 375.457 237.977 376.644 237.069 380.261Z" fill="white"/>
<path d="M217.642 355.395C215.489 359.254 218.577 375.597 228.547 381.011C231.706 369.244 227.313 354.355 217.642 355.395Z" fill="white"/>
<path d="M248.73 348.485C245.869 351.155 243.86 355.824 243.662 360.203C243.467 359.365 243.258 358.445 242.845 357.793C242.597 357.401 242.077 357.806 242.136 358.277C242.259 359.247 242.692 360.19 242.935 361.113C243.19 362.084 243.394 363.081 243.561 364.091C243.898 366.139 244.126 368.224 244.139 370.353C244.14 370.646 244.487 370.657 244.507 370.353C244.636 368.441 244.634 366.524 244.445 364.653C245.125 367.461 246.653 370.043 248.298 371.9C249.705 373.487 251.905 375.633 254.066 374.499C256.242 373.357 256.443 369.959 255.528 367.854C254.511 365.515 252.585 363.777 250.64 362.767C249.296 362.068 247.863 361.74 246.393 361.718C248.179 360.621 249.755 359.021 251.025 357.014C252.301 354.996 253.848 351.777 253.296 349.256C253.043 348.104 252.316 347.248 251.326 347.202C250.407 347.159 249.479 347.786 248.73 348.485ZM244.982 362.821C244.977 362.805 244.968 362.798 244.963 362.784C246.817 362.683 248.654 363.06 250.3 363.949C251.99 364.861 253.66 366.33 254.607 368.327C255.11 369.387 255.343 370.708 254.904 371.964C254.487 373.153 253.588 373.732 252.622 373.6C250.696 373.336 248.989 371.218 247.828 369.512C246.475 367.523 245.745 365.253 244.982 362.821ZM251.172 348.371C252.288 348.436 252.525 349.992 252.329 351.169C251.953 353.436 250.754 355.728 249.464 357.427C248.098 359.226 246.404 360.679 244.578 361.536C244.546 361.551 244.522 361.577 244.495 361.597C244.586 359.401 244.918 357.201 245.672 355.127C246.418 353.075 247.536 351.184 248.918 349.699C249.538 349.032 250.354 348.324 251.172 348.371Z" fill="white"/>
<path d="M239.947 359.645C241.177 363.456 241.246 367.968 240.419 372.134C240.354 372.464 239.907 372.391 239.958 372.055C240.268 370.029 240.366 367.963 240.253 365.95C240.138 363.911 239.756 362.013 239.254 360.119C239.206 359.94 239.207 359.677 239.359 359.54C239.417 359.486 239.465 359.441 239.535 359.42C239.693 359.369 239.886 359.455 239.947 359.645Z" fill="white"/>
<path d="M235.429 359.753C237.013 363.39 237.823 367.736 238.02 371.981C238.043 372.475 237.442 372.696 237.396 372.186C237.209 370.118 236.887 368.073 236.445 366.094C235.993 364.064 235.337 362.18 234.662 360.277C234.447 359.673 235.178 359.18 235.429 359.753Z" fill="white"/>
<path d="M231.456 360.039C231.497 360.046 231.538 360.054 231.579 360.062C231.723 360.088 231.797 360.262 231.834 360.416C232.083 361.453 232.433 362.438 232.67 363.483C232.907 364.526 233.103 365.588 233.261 366.662C233.572 368.78 233.712 370.924 233.681 373.114C233.675 373.54 233.093 373.644 233.078 373.214C233.004 371.092 232.821 368.971 232.499 366.914C232.343 365.918 232.154 364.935 231.932 363.967C231.687 362.903 231.461 361.781 231.075 360.796C231.014 360.64 231.032 360.444 231.114 360.289C231.134 360.252 231.154 360.214 231.174 360.177C231.242 360.049 231.351 360.019 231.456 360.039Z" fill="white"/>
<path d="M278.746 338.007C278.267 338.17 256.042 351.265 256.042 351.265L262.461 369.573L284.019 364.402L278.746 338.007Z" fill="#3B3A3C"/>
<path d="M256.484 351.091C259.152 349.326 261.96 347.88 264.813 346.541C264.798 346.122 264.795 345.703 264.814 345.284C264.996 341.287 266.609 337.463 269.112 334.652C269.344 334.391 269.705 334.78 269.479 335.047C267.14 337.809 265.902 341.551 266.026 345.364C266.08 347.037 266.38 348.709 266.933 350.264C267.2 351.012 267.514 351.741 267.878 352.436C268.274 353.193 268.896 353.888 269.157 354.714C269.377 355.414 268.584 356.11 268.031 355.718C267.321 355.216 266.864 354.203 266.471 353.386C266.064 352.539 265.715 351.646 265.462 350.724C265.216 349.829 265.032 348.909 264.921 347.979C262.338 349.354 259.849 350.945 257.397 352.592C258.867 357.619 260.592 362.557 262.511 367.386C265.601 365.734 269.153 364.781 272.573 364.981C272.127 364.423 271.725 363.821 271.396 363.166C270.653 361.686 270.297 360.095 270.169 358.41C270.145 358.1 270.605 358.02 270.654 358.333C270.891 359.827 271.551 361.254 272.375 362.446C272.674 362.879 273.02 363.277 273.38 363.654C273.474 363.615 273.575 363.584 273.697 363.586C282.307 363.702 290.872 361.8 298.862 358.197C306.801 354.617 314.169 349.509 320.464 342.977C324.027 339.28 327.335 335.165 330.064 330.65C330.28 330.293 330.805 330.607 330.592 330.977C328.214 335.116 325.562 339.03 322.503 342.563C319.436 346.104 316.038 349.292 312.428 352.106C305.222 357.723 297.064 361.702 288.504 363.802C284.255 364.844 279.915 365.428 275.566 365.511C275.756 365.786 275.81 366.159 275.649 366.489C275.44 366.919 274.953 367.069 274.574 366.843C274.263 366.657 273.961 366.424 273.673 366.168C273.579 366.385 273.396 366.55 273.099 366.547C271.25 366.532 269.459 366.628 267.648 367.09C265.861 367.545 264.149 368.261 262.526 369.216C262.202 369.406 261.686 369.359 261.513 368.93C259.341 363.565 257.603 358.019 256.239 352.329C256.023 351.938 256.031 351.391 256.484 351.091Z" fill="#474747"/>
<path d="M233.853 266.781C237.398 266.331 240.971 267.058 244.525 267.299C248.029 267.536 251.539 267.647 255.05 267.631C262.104 267.6 269.16 267.042 276.163 266.081C280.143 265.535 284.132 264.968 288.127 264.596C289.493 264.469 289.413 266.665 288.32 267.084C281.539 269.678 274.282 270.728 267.167 271.345C260.038 271.963 252.874 272.06 245.734 271.631C243.786 271.514 241.84 271.358 239.898 271.163C237.764 270.948 235.754 270.729 233.741 269.878C232.539 269.37 232.323 266.975 233.853 266.781Z" fill="#EBF4F9"/>
<path d="M232.838 276.524C240.277 277.565 247.66 278.857 255.159 279.346C262.57 279.829 270.009 279.723 277.414 279.233C281.675 278.952 285.946 278.834 290.176 278.207C291.426 278.022 291.843 280.027 290.58 280.31C286.893 281.138 283.221 282.153 279.483 282.688C275.651 283.236 271.792 283.572 267.927 283.719C260.306 284.008 252.638 283.731 245.06 282.742C240.73 282.176 236.43 281.474 232.218 280.236C230.315 279.677 230.844 276.246 232.838 276.524Z" fill="#EBF4F9"/>
<path d="M288.608 263.961C288.479 264.327 288.576 264.666 288.763 264.922C288.771 264.995 288.771 265.068 288.779 265.141C288.982 268.374 289.177 271.615 289.413 274.847C289.535 276.422 289.648 278.006 289.77 279.589C289.876 281.055 289.908 282.574 290.298 283.994L292.085 283.298C292.15 282.062 292.012 280.835 291.914 279.589C291.784 277.932 291.654 276.275 291.524 274.618C291.281 271.46 290.988 268.301 290.704 265.141C290.688 264.968 290.672 264.794 290.656 264.62C291.135 263.823 291.484 262.898 291.809 262.029C292.174 261.04 292.507 260.033 292.8 259.007C293.392 256.938 293.799 254.796 294.059 252.635C294.107 252.213 293.961 251.774 293.547 251.664C293.197 251.564 292.742 251.802 292.678 252.231C292.377 254.319 291.882 256.352 291.175 258.311C290.907 259.053 290.59 259.777 290.265 260.491C289.786 255.565 289.25 250.648 288.755 245.722C288.69 245.026 287.731 244.989 287.764 245.722C288.081 251.728 288.332 257.743 288.698 263.75C288.666 263.823 288.633 263.887 288.608 263.961Z" fill="#FFC5A0"/>
<path d="M228.678 257.057C229.108 259.117 229.49 261.186 229.929 263.246C230.148 264.263 230.359 265.27 230.587 266.278C230.765 267.12 230.838 268.273 231.366 268.951C231.188 270.928 231.001 272.906 230.79 274.875C230.603 276.697 230.278 278.528 230.059 280.359L232.284 281.018C232.593 278.985 232.715 276.871 232.91 274.875C233.169 272.146 233.324 269.417 233.373 266.671C233.478 261.013 233.429 255.419 233.056 249.778C233.007 249.018 231.984 249 232 249.778C232.105 254.429 232.057 259.154 231.764 263.814C231.675 263.476 231.585 263.127 231.488 262.788C230.944 260.756 230.335 258.751 229.783 256.727C229.563 255.94 228.508 256.251 228.678 257.057Z" fill="#FFC5A0"/>
<path d="M212.377 275.112L230.059 280.359L232.049 280.945L232.91 274.874L213.815 267.412C212.897 272.008 212.377 275.112 212.377 275.112Z" fill="#FFC5A0"/>
<path d="M284.833 214.185L274.592 216.97C273.088 217.379 271.575 216.336 271.212 214.641L268.424 201.614C268.062 199.919 268.987 198.213 270.491 197.804L280.732 195.019C282.236 194.61 283.75 195.653 284.112 197.348L286.9 210.375C287.262 212.071 286.337 213.776 284.833 214.185Z" fill="white"/>
<path d="M273.869 216.853C272.705 216.853 271.701 215.96 271.427 214.682L268.599 201.467C268.442 200.731 268.548 199.97 268.898 199.324C269.249 198.678 269.801 198.224 270.455 198.047L277.117 196.235C277.312 196.182 277.511 196.155 277.709 196.155C278.874 196.155 279.878 197.048 280.152 198.327L282.979 211.539C283.304 213.059 282.472 214.594 281.125 214.961L274.462 216.773C274.267 216.826 274.067 216.853 273.869 216.853Z" fill="#D9DADE"/>
<path d="M277.709 196.382C278.781 196.382 279.705 197.203 279.956 198.38L282.784 211.593C283.083 212.991 282.317 214.403 281.076 214.74L274.414 216.553C274.234 216.602 274.051 216.626 273.868 216.626C272.797 216.626 271.873 215.805 271.622 214.629L268.794 201.414C268.649 200.737 268.747 200.036 269.069 199.442C269.392 198.847 269.9 198.43 270.501 198.267L277.164 196.455C277.343 196.407 277.527 196.382 277.709 196.382ZM277.709 195.929C277.498 195.929 277.284 195.957 277.07 196.015L270.407 197.826C268.948 198.222 268.052 199.876 268.403 201.52L271.231 214.735C271.532 216.137 272.643 217.08 273.868 217.08C274.08 217.08 274.294 217.051 274.508 216.993L281.171 215.181C282.629 214.784 283.526 213.131 283.175 211.486L280.347 198.273C280.046 196.871 278.935 195.929 277.709 195.929Z" fill="#FFC5A0"/>
<path d="M241.4 214.282C237.556 209.456 235.208 201.853 235.208 201.853C233.079 202.55 230.872 200.203 232.555 197.54C228.824 197.455 234.707 183.844 242.45 186.714L248.702 211.755L241.4 214.282Z" fill="#3B3A3C"/>
<path d="M272.699 181.388C279.253 190.611 278.369 203.233 278.369 203.233L267.672 184.675L272.699 181.388Z" fill="#3B3A3C"/>
<path d="M270.836 212.525L271.02 221.079L271.235 230.917L271.456 236.062C271.699 241.743 267.979 246.656 262.964 247.276C257.911 247.902 253.309 243.952 252.5 238.294L248.196 208.191L270.836 212.525Z" fill="#F1C6C4"/>
<path d="M271.07 219.266L271.29 232.165C261.62 233.256 254.985 225.363 253.221 219.425C257.377 217.844 271.07 219.266 271.07 219.266Z" fill="#3B3A3C"/>
<path d="M243.294 211.83C241.294 211.599 239.065 212.514 238.151 214.534C237.39 216.216 237.678 218.271 238.305 220.021C239.115 222.279 240.493 224.32 242.351 225.562C244.209 226.806 246.562 227.181 248.579 226.31C250.597 225.439 252.176 223.245 252.291 220.813C252.513 216.147 246.889 212.245 243.294 211.83Z" fill="#F1C6C4"/>
<path d="M247.63 219.221C245.683 217.697 243.633 217.786 241.436 218.429C241.11 218.525 241.183 219.152 241.531 219.101C243.332 218.837 245.426 220.004 246.711 221.068C246.894 221.219 247.23 221.229 247.437 221.16C247.653 221.088 247.887 220.893 247.99 220.662C248.237 220.109 248.063 219.559 247.63 219.221Z" fill="#3B3A3C"/>
<path d="M270.819 186.22C268.837 184.437 266.36 183.643 263.726 183.587C257.005 183.426 249.239 188.064 245.975 193.545C241.203 201.552 242.726 211.127 247.488 218.27C249.663 221.566 252.534 224.35 255.789 226.216C261.493 229.498 268.844 230.208 273.999 225.925C277.722 222.844 279.733 217.583 280.017 212.376C280.501 203.576 277.109 191.885 270.819 186.22Z" fill="#F1C6C4"/>
<path d="M273.804 201.739C274.219 202.738 274.041 203.853 273.407 204.229C272.773 204.605 271.923 204.101 271.508 203.102C271.093 202.103 271.27 200.988 271.904 200.612C272.539 200.235 273.389 200.74 273.804 201.739Z" fill="#3B3A3C"/>
<path d="M263.928 206.505C264.343 207.504 264.166 208.619 263.532 208.995C262.898 209.371 262.047 208.866 261.632 207.867C261.217 206.868 261.395 205.753 262.029 205.377C262.663 205.001 263.514 205.506 263.928 206.505Z" fill="#3B3A3C"/>
<path d="M271.942 206.483C270.328 204.359 268.627 202.348 266.902 200.343C266.735 200.148 266.445 200.393 266.604 200.61C267.887 202.366 269.175 204.091 270.528 205.782C271.183 206.6 272.007 207.435 272.355 208.49C272.646 209.373 272.327 210.24 271.898 210.972C271.787 211.162 271.913 211.452 272.132 211.406C272.888 211.245 273.303 210.3 273.273 209.492C273.229 208.332 272.587 207.329 271.942 206.483Z" fill="#3B3A3C"/>
<path d="M274.31 191.133C273.348 189.634 269.103 191.557 268.896 193.402C268.627 195.803 275.965 193.71 274.31 191.133Z" fill="#3B3A3C"/>
<path d="M259.321 198.642C258.053 197.015 253.354 199.723 253.288 201.898C253.175 205.676 260.875 200.637 259.321 198.642Z" fill="#3B3A3C"/>
<path d="M266.169 215.119C266.236 214.616 270.051 214.24 270.485 214.738C270.762 215.055 270.082 216.904 268.448 217.018C267.1 217.112 266.092 215.703 266.169 215.119Z" fill="white"/>
<path d="M247.857 193.549C251.636 200.232 252.493 215.457 247.893 213.644C243.293 211.831 241.641 211.899 241.641 211.899C225.709 194.346 237.273 179.978 247.857 193.549Z" fill="#3B3A3C"/>
<path d="M248.61 195.283C251.978 185.384 256.537 183.688 266.424 188.866C269.345 190.396 277.34 190.072 277.762 186.305C278.039 183.826 275.428 183.06 275.428 183.06C280.555 181.363 278.332 176.037 274.337 178.524C280.962 172.193 275.786 167.049 271.555 171.129C268.296 174.273 265.712 175.605 261.095 174.236C254.225 172.199 242.453 175.661 241.511 188.467L248.61 195.283Z" fill="#3B3A3C"/>
<path d="M256.197 211.82L278.167 205.61C282.482 204.385 285.048 199.217 283.897 194.068C282.746 188.919 278.315 185.739 274 186.964L252.03 193.174C247.715 194.399 245.15 199.566 246.301 204.715C247.451 209.864 251.882 213.045 256.197 211.82Z" fill="white"/>
<path d="M276.055 187.082C279.455 187.082 282.59 190.067 283.509 194.18C284.603 199.078 282.313 203.966 278.403 205.076L261.543 209.835C261.011 209.986 260.465 210.062 259.92 210.062C256.52 210.062 253.384 207.077 252.465 202.965C251.371 198.067 253.662 193.178 257.571 192.068L274.432 187.309C274.963 187.158 275.51 187.082 276.055 187.082ZM276.055 186.629C275.484 186.629 274.908 186.707 274.334 186.87L257.474 191.628C253.342 192.801 250.925 197.927 252.076 203.076C253.067 207.51 256.38 210.515 259.92 210.515C260.491 210.515 261.066 210.437 261.64 210.274L278.501 205.516C282.632 204.343 285.049 199.217 283.898 194.069C282.907 189.635 279.595 186.629 276.055 186.629Z" fill="#FFC5A0"/>
<path d="M277.405 202.211L270.39 204.192L268.048 204.853L267.053 205.139L262.956 206.293L262.732 206.357C262.43 206.442 262.121 206.501 261.821 206.527C259.232 206.753 256.799 204.852 256.141 201.917C255.409 198.634 257.169 195.307 260.081 194.48L267.51 192.386L271.602 191.232L272.602 190.946L274.754 190.34C274.816 190.322 274.878 190.309 274.94 190.298C275.186 190.231 275.428 190.191 275.666 190.17C278.254 189.944 280.687 191.845 281.345 194.781C282.078 198.058 280.317 201.384 277.405 202.211Z" fill="#D9DADE"/>
<path d="M272.036 190.148L266.795 206.173L262.073 207.503L267.321 191.478L272.036 190.148Z" fill="white"/>
<path d="M275.882 189.072L270.64 205.081L267.94 205.843L273.188 189.818L275.669 189.121C275.739 189.099 275.811 189.085 275.882 189.072Z" fill="white"/>
<path d="M276.058 197.767L263.865 201.199C263.121 201.409 262.365 200.898 262.179 200.058C261.993 199.218 262.447 198.367 263.191 198.158L275.384 194.725C276.13 194.516 276.884 195.027 277.071 195.867C277.256 196.707 276.803 197.558 276.058 197.767Z" fill="#E37171"/>
<path d="M252.762 224.498L242.758 228.222C241.289 228.769 239.705 227.87 239.219 226.214L235.492 213.49C235.007 211.834 235.804 210.048 237.273 209.501L247.277 205.776C248.746 205.23 250.33 206.128 250.815 207.785L254.543 220.509C255.029 222.165 254.231 223.951 252.762 224.498Z" fill="white"/>
<path d="M239.663 212.616L243.345 211.246C244.306 210.888 245.344 211.476 245.661 212.561L247.88 220.132C248.198 221.216 247.675 222.386 246.713 222.744L243.032 224.116C242.07 224.473 241.033 223.884 240.715 222.8L238.496 215.229C238.179 214.144 238.701 212.974 239.663 212.616Z" fill="#D9DADE"/>
<path d="M244.551 207.406C245.552 207.406 246.434 208.126 246.748 209.197L250.529 222.103C250.93 223.47 250.269 224.948 249.058 225.399L242.55 227.822C242.314 227.911 242.069 227.955 241.824 227.955C240.824 227.955 239.941 227.235 239.627 226.164L235.845 213.256C235.445 211.89 236.105 210.412 237.317 209.962L243.825 207.538C244.061 207.45 244.305 207.406 244.551 207.406ZM244.551 206.953C244.269 206.953 243.982 207.003 243.699 207.108L237.191 209.531C235.767 210.061 234.994 211.793 235.464 213.398L239.245 226.306C239.622 227.593 240.684 228.408 241.824 228.408C242.106 228.408 242.393 228.358 242.676 228.253L249.184 225.829C250.608 225.299 251.381 223.568 250.911 221.962L247.129 209.055C246.752 207.768 245.691 206.953 244.551 206.953Z" fill="#FFC5A0"/>
<path d="M242.01 54.7718C241.791 55.7087 241.52 56.6591 241.191 57.6304C238.214 66.462 232.008 71.0715 225.313 72.1995C212.895 74.3215 198.786 64.5159 200.41 47.5728C200.566 45.9451 200.883 44.3446 201.359 42.8075C203.247 36.5554 207.54 31.2201 212.969 28.6886C215.777 27.3867 218.716 26.7642 221.601 26.7547C234.226 26.7248 245.921 38.2995 242.01 54.7718Z" fill="#FFC5A0"/>
<path d="M221.601 26.7552C221.544 26.9427 221.495 27.1316 221.455 27.321C221.006 29.3052 221.088 31.3094 221.778 33.2049C222.388 34.8878 223.485 36.2455 224.337 37.7704C224.844 38.657 225.512 40.0323 224.863 41.0149C224.261 41.9196 222.813 42.6581 222.01 43.6053C219.685 46.3456 219.806 50.4885 221.75 53.435C223.882 56.6696 227.703 57.4184 231.057 57.0075C234.312 56.6138 237.359 54.8203 240.65 54.6799C241.085 54.6627 241.55 54.6849 242.01 54.7718C245.921 38.2995 234.225 26.7248 221.601 26.7552ZM220.754 62.5747C219.701 61.9427 218.608 61.4082 217.536 60.8111C217.137 60.5923 216.887 60.4446 216.416 60.1066C216.231 59.9757 216.046 59.8362 215.87 59.6876C215.779 59.6128 215.477 59.303 215.43 59.2794L215.423 59.269C214.848 58.6058 214.554 58.0291 214.584 56.9142C214.624 55.5791 215.161 54.2885 215.593 53.0789C216.56 50.3943 217.549 47.3699 216.348 44.5503C215.147 41.7312 212.307 40.4428 209.65 40.4582C206.706 40.4795 204.151 42.0768 201.359 42.808C200.883 44.3451 200.566 45.9452 200.41 47.5729C198.786 64.5163 212.896 74.3215 225.314 72.2C225.456 71.0235 225.517 69.8289 225.306 68.6606C224.803 65.8156 222.952 63.8857 220.754 62.5747Z" fill="#FF6C0E"/>
<path d="M242.239 53.7344C242.168 54.0778 242.089 54.4203 242.01 54.7723C241.79 55.7091 241.52 56.6591 241.192 57.6304C238.214 66.462 232.008 71.0711 225.313 72.1996C212.895 74.3211 198.786 64.5168 200.41 47.5733C200.566 45.9461 200.883 44.3446 201.359 42.8075C201.862 41.1531 202.532 39.5535 203.356 38.0635C203.259 38.6162 203.186 39.1815 203.129 39.7483C201.506 56.6917 215.615 66.496 228.033 64.3741C233.655 63.425 238.93 60.0264 242.239 53.7344Z" fill="#474747"/>
<path d="M253.392 33.163C253.128 34.5751 252.304 35.7878 251.535 36.9163C249.035 40.6184 246.011 43.7841 242.709 46.5647C239.48 49.286 236.003 51.6281 232.479 53.7551C224.405 58.6282 215.962 62.7566 207.314 66.1506C207.155 66.21 206.997 66.2789 206.838 66.3382C204.897 67.0993 202.945 67.8173 200.982 68.4928C198.746 69.2652 196.348 70.3606 193.983 70.1631C191.938 69.9868 189.936 68.447 189.558 66.0809C189.168 63.6627 190.583 61.6195 192.008 60.0231C194.601 57.1278 197.373 54.4342 200.346 52.0277C200.423 53.1249 200.576 54.1895 200.78 55.2134C198.27 57.5827 195.837 60.1291 193.734 62.9238C192.944 63.9752 191.986 65.6836 193.64 66.3454C195.248 67.0032 197.377 65.8557 198.917 65.3357C200.721 64.7109 202.522 64.0604 204.306 63.3759C206.415 62.5722 208.512 61.7174 210.591 60.8286C218.002 57.6352 225.305 53.9603 232.217 49.5528C235.613 47.3856 238.92 44.9642 241.924 42.1509C244.392 39.8469 246.66 37.2723 248.614 34.3698C249.054 33.7125 249.463 33.0674 249.74 32.3294C249.732 32.3303 249.732 32.3299 249.725 32.3308C249.536 32.305 249.397 32.2225 249.122 32.1881C247.412 32.0051 245.305 32.5369 243.549 32.8762C241.601 33.2432 239.66 33.7057 237.743 34.2715C236.781 33.1113 235.69 32.0789 234.515 31.1769C238.191 29.701 241.988 28.6957 245.896 28.2065C247.961 27.9424 250.504 27.5079 252.234 29.1537C253.259 30.1323 253.668 31.6975 253.392 33.163Z" fill="#FFC5A0"/>
<path d="M225.895 19.0684C226.484 20.7161 228.19 21.8844 229.874 21.7617C231.557 21.6389 233.057 20.2141 233.284 18.4877C233.555 16.4264 231.608 13.4655 229.443 13.5588C226.814 13.6725 224.971 16.4799 225.895 19.0684Z" fill="#E37171"/>
<path d="M201.032 89.0918C203.056 90.8142 206.02 90.9823 208.188 89.4986C213.439 85.9039 210.976 76.7108 205.109 76.207C199.013 75.6828 196.238 85.0142 201.032 89.0918Z" fill="white"/>
<path d="M523.535 121.78C523.316 122.717 523.045 123.667 522.716 124.638C519.739 133.47 513.533 138.08 506.838 139.208C494.42 141.33 480.311 131.524 481.935 114.581C482.091 112.953 482.408 111.353 482.884 109.816C484.772 103.563 489.064 98.2282 494.494 95.6967C497.302 94.3947 500.241 93.7723 503.126 93.7628C515.75 93.7329 527.446 105.308 523.535 121.78Z" fill="#FFC5A0"/>
<path d="M503.126 93.7629C503.069 93.9504 503.02 94.1393 502.979 94.3287C502.531 96.3129 502.613 98.3171 503.303 100.213C503.913 101.896 505.009 103.253 505.862 104.778C506.368 105.665 507.037 107.04 506.388 108.023C505.786 108.927 504.337 109.666 503.535 110.613C501.21 113.353 501.331 117.496 503.275 120.443C505.407 123.677 509.228 124.426 512.582 124.015C515.837 123.622 518.884 121.828 522.174 121.688C522.61 121.67 523.075 121.693 523.535 121.78C527.446 105.307 515.75 93.7325 503.126 93.7629ZM502.279 129.582C501.226 128.95 500.133 128.416 499.061 127.819C498.662 127.6 498.412 127.452 497.941 127.114C497.756 126.983 497.571 126.844 497.395 126.695C497.303 126.621 497.002 126.311 496.955 126.287L496.947 126.277C496.373 125.613 496.079 125.037 496.108 123.922C496.149 122.587 496.686 121.296 497.117 120.087C498.085 117.402 499.073 114.378 497.872 111.558C496.671 108.739 493.831 107.45 491.175 107.466C488.23 107.487 485.676 109.085 482.884 109.816C482.408 111.353 482.091 112.953 481.935 114.581C480.311 131.524 494.42 141.329 506.839 139.208C506.98 138.031 507.042 136.837 506.831 135.668C506.328 132.823 504.477 130.893 502.279 129.582Z" fill="#FF6C0E"/>
<path d="M523.763 120.742C523.693 121.086 523.614 121.428 523.535 121.78C523.315 122.717 523.045 123.667 522.716 124.638C519.739 133.47 513.533 138.079 506.838 139.207C494.42 141.329 480.311 131.525 481.935 114.581C482.09 112.954 482.408 111.352 482.884 109.815C483.386 108.161 484.056 106.561 484.881 105.071C484.784 105.624 484.711 106.189 484.654 106.756C483.03 123.7 497.14 133.504 509.558 131.382C515.18 130.433 520.454 127.034 523.763 120.742Z" fill="#474747"/>
<path d="M534.917 100.171C534.653 101.583 533.828 102.796 533.06 103.924C530.56 107.626 527.536 110.792 524.234 113.573C521.005 116.294 517.528 118.636 514.004 120.763C505.93 125.636 497.487 129.765 488.839 133.159C488.68 133.218 488.522 133.287 488.363 133.346C486.422 134.107 484.47 134.825 482.507 135.501C480.271 136.273 477.873 137.369 475.508 137.171C473.462 136.995 471.46 135.455 471.083 133.089C470.693 130.671 472.107 128.627 473.532 127.031C476.126 124.136 478.898 121.442 481.871 119.036C481.948 120.133 482.101 121.197 482.304 122.221C479.795 124.591 477.361 127.137 475.258 129.932C474.468 130.983 473.511 132.692 475.165 133.353C476.773 134.011 478.902 132.864 480.441 132.344C482.245 131.719 484.047 131.068 485.83 130.384C487.94 129.58 490.037 128.725 492.116 127.836C499.526 124.643 506.83 120.968 513.741 116.561C517.138 114.394 520.445 111.972 523.449 109.159C525.917 106.855 528.184 104.28 530.139 101.378C530.578 100.72 530.988 100.075 531.265 99.3374C531.257 99.3383 531.257 99.3378 531.25 99.3387C531.061 99.3129 530.922 99.2304 530.647 99.196C528.936 99.013 526.83 99.5448 525.074 99.8842C523.126 100.251 521.185 100.714 519.267 101.279C518.306 100.119 517.215 99.0868 516.04 98.1849C519.716 96.7089 523.513 95.7037 527.421 95.2144C529.486 94.9503 532.028 94.5158 533.758 96.1617C534.784 97.1402 535.193 98.7054 534.917 100.171Z" fill="#FFC5A0"/>
<path d="M507.42 86.0763C508.008 87.7239 509.715 88.8922 511.398 88.7695C513.082 88.6467 514.581 87.2219 514.808 85.4955C515.08 83.4342 513.133 80.4733 510.968 80.5666C508.339 80.6803 506.495 83.4877 507.42 86.0763Z" fill="#E37171"/>
<path d="M482.556 156.1C484.581 157.822 487.545 157.99 489.713 156.507C494.964 152.912 492.501 143.719 486.634 143.215C480.538 142.691 477.763 152.022 482.556 156.1Z" fill="white"/>
<path d="M288.104 141.855L303.355 147.41L300.026 129.645L284.714 124.013L288.104 141.855Z" fill="#474747"/>
<path d="M303.356 147.41L315.31 135.374L311.92 117.533L300.026 129.645L303.356 147.41Z" fill="#FFC5A0"/>
<path d="M284.714 124.013L300.026 129.645L311.919 117.533L296.607 111.902L284.714 124.013Z" fill="#F5F8FC"/>
<path d="M313.576 151.415V132.153" stroke="#FFC5A0" stroke-width="2" stroke-miterlimit="10"/>
<path d="M313.576 153.405V156.17" stroke="#FFC5A0" stroke-width="2" stroke-miterlimit="10"/>
<path d="M309.454 147.591V138.162" stroke="#FFC5A0" stroke-width="2" stroke-miterlimit="10"/>
<path d="M391.619 101.509C391.619 101.509 403.337 91.923 419.033 84.16L394.842 43.5874L373.08 65.4928C373.08 65.4928 354.595 76.2793 339.279 70.0303L337.56 76.2086L360.73 114.068C360.73 114.068 379.327 113.775 391.619 101.509Z" fill="#FFC5A0"/>
<path d="M372.021 63.3787L389.825 98.9455C389.825 98.9455 376.017 111.814 361.529 108.434L339.796 68.1658C359.546 73.0358 359.781 56.0575 372.021 63.3787Z" fill="#F5F8FC"/>
<path d="M372.021 63.3786C371.172 51.9529 389.825 40.3569 389.825 40.3569L413.964 81.6385C413.964 81.6385 399.425 82.3919 389.825 98.9453L372.021 63.3786Z" fill="#F5F8FC"/>
<path d="M372.021 63.3787L389.825 98.9454" stroke="#FFC5A0" stroke-miterlimit="10"/>
<path d="M358.959 75.9644C358.094 74.1419 357.256 72.2795 356.236 70.5612C356.122 70.3705 355.876 70.1888 355.66 70.2876C353.61 71.2231 351.455 71.8124 349.343 72.549C349.124 72.496 348.884 72.6129 348.738 72.8154C348.418 73.1226 348.518 73.7369 348.853 73.9208C349.354 75.0135 349.855 76.1062 350.356 77.1984C350.627 77.791 350.889 78.3917 351.184 78.9702C351.421 79.4363 351.739 79.8767 352.225 79.999C352.738 80.1281 353.289 79.8608 353.749 79.632C354.299 79.3589 354.836 79.0526 355.376 78.7563C356.486 78.1484 357.598 77.55 358.715 76.9624C359.039 76.7925 359.114 76.2906 358.959 75.9644ZM355.274 77.3189C354.818 77.5785 354.362 77.8376 353.906 78.0972C353.665 78.2345 353.426 78.3758 353.189 78.5217C353.025 78.6218 352.779 78.8293 352.589 78.7908C352.254 78.7233 352.069 78.007 351.943 77.7244C351.71 77.2016 351.466 76.6856 351.225 76.1673C350.833 75.3197 350.441 74.4726 350.048 73.6259C351.861 72.9038 353.652 72.1092 355.506 71.5415C356.098 73.0709 356.804 74.5478 357.509 76.0174C356.766 76.4555 356.022 76.8931 355.274 77.3189Z" fill="#CFE0EE"/>
<path d="M369.105 64.8502C365.631 63.6007 363.029 67.5425 359.946 68.4155C359.393 68.5722 359.618 69.5081 360.17 69.3754C361.699 69.0067 363 68.0277 364.347 67.186C365.718 66.3298 367.217 65.6756 368.772 66.2826C369.566 66.593 369.914 65.141 369.105 64.8502Z" fill="#CFE0EE"/>
<path d="M370.117 68.5774C369.407 68.4972 368.634 68.6223 367.93 68.7373C367.198 68.8565 366.477 69.0631 365.782 69.3485C364.386 69.9224 363.118 70.7773 362.019 71.9049C361.506 72.4299 362.253 73.2431 362.771 72.7534C363.778 71.8025 364.957 71.0704 366.209 70.6228C366.822 70.4035 367.454 70.2391 368.092 70.1535C368.778 70.0611 369.433 70.129 370.117 70.1458C370.493 70.1548 370.812 69.7784 370.812 69.3616C370.812 68.9027 370.492 68.62 370.117 68.5774Z" fill="#CFE0EE"/>
<path d="M372.563 73.7986C365.751 74.5461 360.723 80.5047 354.225 82.3032C353.55 82.4903 353.825 83.6274 354.497 83.4725C357.728 82.7263 360.627 80.9351 363.512 79.2086C366.352 77.5093 369.304 75.8001 372.563 75.5029C373.531 75.4141 373.527 73.6926 372.563 73.7986Z" fill="#CFE0EE"/>
<path d="M362.593 82.9352C362.052 83.0793 361.563 83.3973 361.056 83.6469C360.611 83.8657 360.157 84.0605 359.695 84.229C358.718 84.586 357.694 84.8474 356.674 84.986C356.38 85.0264 356.124 85.2429 356.124 85.6062C356.124 85.931 356.377 86.2405 356.674 86.2264C357.811 86.1725 358.924 85.9718 360.015 85.6067C360.553 85.4268 361.079 85.2107 361.594 84.962C362.138 84.6993 362.685 84.4225 363.105 83.94C363.48 83.5101 363.105 82.7993 362.593 82.9352Z" fill="#CFE0EE"/>
<path d="M381.336 88.6204C380.519 85.4783 378.607 81.6598 375.27 81.8206C373.342 81.9135 371.664 83.1715 370.104 84.3294C368.479 85.5363 366.798 86.6421 365.061 87.6319C363.067 88.7686 361.027 89.8173 358.939 90.7179C358.624 90.8538 358.548 91.2172 358.639 91.4908C358.17 91.474 357.72 91.9669 358.018 92.5821C358.821 94.2402 359.789 95.8117 360.687 97.4068C360.886 97.7592 361.3 97.9269 361.636 97.7017C364.564 95.7438 367.636 94.0617 370.822 92.7081C372.411 92.0335 374.024 91.4346 375.658 90.9141C377.285 90.3963 378.961 89.873 380.642 89.6339C381.08 89.5718 381.479 89.1709 381.336 88.6204ZM375.317 89.4513C373.65 89.9777 372.003 90.5852 370.384 91.2724C367.328 92.5681 364.373 94.145 361.537 95.9666C360.781 94.5718 360.041 93.1529 359.198 91.8278C359.189 91.8142 359.177 91.8088 359.168 91.7961C359.176 91.7939 359.182 91.7961 359.189 91.7939C362.658 90.6432 365.953 89.0123 369.075 86.9556C371.487 85.3655 375.127 81.6262 377.798 84.6166C378.706 85.6337 379.189 86.9461 379.663 88.2558C378.212 88.6463 376.755 88.9978 375.317 89.4513Z" fill="#CFE0EE"/>
<path d="M380.372 91.0867C378.901 91.5533 377.46 92.284 376.023 92.8757C374.574 93.4732 373.124 94.0703 371.675 94.6683C368.774 95.8656 365.884 97.0983 363.004 98.3577C362.323 98.6558 362.585 99.8966 363.298 99.6193C366.249 98.4732 369.191 97.2985 372.121 96.0871C373.57 95.4882 375.02 94.8893 376.468 94.2904C377.924 93.6884 379.457 93.1855 380.867 92.4611C381.559 92.106 381.084 90.8606 380.372 91.0867Z" fill="#CFE0EE"/>
<path d="M371.891 98.6293C371.529 98.5958 371.181 98.8236 370.866 99.0017C370.606 99.1485 370.343 99.2907 370.078 99.4262C369.544 99.6984 369.001 99.9476 368.449 100.17C367.291 100.636 366.099 100.988 364.889 101.232C364.566 101.297 364.377 101.73 364.456 102.067C364.547 102.46 364.871 102.607 365.197 102.556C366.457 102.358 367.7 102.044 368.912 101.605C369.525 101.383 370.127 101.128 370.721 100.846C371.29 100.577 372.107 100.305 372.428 99.669C372.672 99.1861 372.343 98.671 371.891 98.6293Z" fill="#CFE0EE"/>
<path d="M387.325 47.7712C386.618 47.7925 385.868 48.3525 385.253 48.7167C384.632 49.0841 384.027 49.4832 383.438 49.9109C382.188 50.8183 381.005 51.8543 379.917 52.9968C377.762 55.2579 375.988 57.9787 374.693 60.9578C374.381 61.6776 375.332 62.3024 375.663 61.5784C376.954 58.7534 378.679 56.2301 380.752 54.0764C381.783 53.0041 382.898 52.0396 384.084 51.1943C384.652 50.7902 385.235 50.4128 385.83 50.0644C386.437 49.7093 387.26 49.4642 387.75 48.9255C388.116 48.5228 387.846 47.7554 387.325 47.7712Z" fill="#CFE0EE"/>
<path d="M380.975 58.1026C380.835 57.9454 380.574 57.8842 380.403 58.0152C379.966 58.3513 379.642 58.7726 379.303 59.2234C378.968 59.6687 378.646 60.1272 378.321 60.582L376.399 63.272C376.216 63.528 376.177 63.8818 376.399 64.1323C376.593 64.3511 376.97 64.3824 377.162 64.1323C377.826 63.2625 378.491 62.3923 379.156 61.5225C379.483 61.0944 379.815 60.6694 380.133 60.2318C380.474 59.7611 380.832 59.3063 381.052 58.7463C381.138 58.5271 381.133 58.2811 380.975 58.1026Z" fill="#CFE0EE"/>
<path d="M397.279 60.4576C396.43 58.7484 395.431 56.8796 393.763 56.0769C391.862 55.1627 389.874 56.0538 388.181 57.1111C386.458 58.1875 384.835 59.4741 383.33 60.9056C381.805 62.3576 380.312 64.0233 379.208 65.9084C379.182 65.9532 379.173 65.9981 379.161 66.0425C378.677 66.0284 378.184 66.6418 378.507 67.2008C379.554 69.0161 380.856 70.6805 382.03 72.3947C382.277 72.7544 382.768 72.643 383.028 72.3947C387.364 68.2568 392.055 64.6127 397.022 61.5054C397.346 61.3029 397.457 60.8178 397.279 60.4576ZM379.874 66.6441C379.909 66.6214 379.944 66.6024 379.975 66.5666C381.228 65.1224 382.423 63.6523 383.784 62.3304C385.119 61.0329 386.559 59.8795 388.08 58.877C389.517 57.9293 391.401 56.6237 393.119 57.3734C394.35 57.9098 395.132 59.2675 395.769 60.5518C391.135 63.487 386.749 66.8896 382.654 70.7072C381.748 69.3414 380.862 67.9306 379.874 66.6441Z" fill="#CFE0EE"/>
<path d="M398.513 63.4918C398.041 63.2557 397.664 63.5081 397.219 63.7205C396.832 63.9058 396.45 64.1061 396.076 64.3212C395.307 64.7625 394.565 65.2653 393.858 65.8235C392.444 66.9397 391.19 68.2557 390.109 69.7729C389.695 70.3546 390.4 71.1918 390.852 70.6105C391.912 69.2501 393.126 68.0274 394.456 67.0122C395.119 66.5066 395.81 66.0495 396.525 65.6454C396.882 65.4434 397.246 65.2536 397.615 65.0787C398.002 64.8957 398.527 64.8033 398.721 64.343C398.839 64.0617 398.803 63.6367 398.513 63.4918Z" fill="#CFE0EE"/>
<path d="M400.348 66.7015C400.202 66.4872 399.993 66.431 399.765 66.4704C399.581 66.5021 399.42 66.648 399.265 66.7567C399.146 66.8392 399.027 66.9212 398.909 67.0045C398.665 67.1767 398.424 67.3552 398.181 67.531C397.686 67.8893 397.192 68.2449 396.714 68.6313C396.509 68.7967 396.384 69.107 396.533 69.3734C396.677 69.633 396.95 69.7163 397.191 69.5782C397.723 69.2728 398.237 68.9376 398.755 68.6023C399.013 68.4347 399.273 68.2703 399.529 68.0981C399.649 68.018 399.768 67.9378 399.887 67.8576C399.955 67.8118 400.025 67.7679 400.092 67.7199C400.222 67.627 400.303 67.531 400.393 67.391C400.521 67.1935 400.467 66.8781 400.348 66.7015Z" fill="#CFE0EE"/>
<path d="M401.405 70.716C400.712 70.7396 399.984 71.2044 399.351 71.507C398.725 71.8064 398.106 72.1294 397.498 72.4737C396.198 73.2103 394.943 74.0475 393.744 74.9758C391.373 76.8114 389.244 79.014 387.398 81.4984C386.969 82.0751 387.689 82.9118 388.141 82.336C389.973 79.9989 392.064 77.9385 394.357 76.1948C395.487 75.3368 396.665 74.5594 397.881 73.8695C398.49 73.5247 399.108 73.2017 399.736 72.9018C400.352 72.6074 401.171 72.4334 401.702 71.9804C402.135 71.6098 402.07 70.6929 401.405 70.716Z" fill="#CFE0EE"/>
<path d="M389.184 72.5891C388.462 71.5616 387.236 71.1743 386.142 71.6174C384.814 72.1556 384.034 73.5531 383.757 75.0585C383.712 75.3031 383.8 75.4925 383.937 75.6071C384.316 76.8914 385.334 77.7635 386.524 77.9225C387.684 78.0774 388.804 77.3848 389.417 76.288C390.071 75.1183 389.931 73.651 389.184 72.5891ZM388.431 74.6087C388.43 74.6186 388.427 74.6685 388.425 74.6997C388.42 74.7301 388.412 74.7795 388.41 74.789C388.401 74.8397 388.389 74.8895 388.376 74.9389C388.364 74.9883 388.35 75.0368 388.335 75.0857C388.33 75.0993 388.331 75.0997 388.331 75.1025C388.326 75.1097 388.323 75.1151 388.312 75.1373C388.261 75.2388 388.216 75.3403 388.158 75.4377C388.152 75.4477 388.126 75.4857 388.11 75.5097C388.092 75.5315 388.072 75.5568 388.067 75.5645C388.005 75.6411 387.939 75.7136 387.87 75.7824C387.863 75.7892 387.838 75.8132 387.818 75.8323C387.787 75.8554 387.714 75.9138 387.7 75.9233C387.623 75.9795 387.544 76.0312 387.462 76.0769C387.453 76.0814 387.42 76.0987 387.396 76.1113C387.37 76.1213 387.335 76.1363 387.326 76.1394C387.238 76.1716 387.15 76.1938 387.06 76.2164C387.049 76.2192 387.051 76.2192 387.046 76.221C386.977 76.2273 386.908 76.2309 386.838 76.2305C386.791 76.23 386.745 76.2264 386.698 76.2241C386.681 76.2232 386.679 76.2241 386.678 76.2255C386.67 76.2232 386.667 76.2228 386.648 76.2182C386.533 76.192 386.422 76.1571 386.31 76.1199C386.3 76.1172 386.281 76.1091 386.265 76.1018C386.212 76.0751 386.159 76.047 386.107 76.0162C386.014 75.9605 385.923 75.9002 385.835 75.8354C385.827 75.8296 385.802 75.8101 385.78 75.7938C385.755 75.7702 385.697 75.7186 385.688 75.7095C385.6 75.6212 385.519 75.526 385.441 75.4273C385.41 75.3879 385.379 75.348 385.349 75.3081C385.343 75.3013 385.29 75.2184 385.274 75.1985C385.217 75.0993 385.162 74.9987 385.114 74.8923C385.061 74.7772 384.989 74.6997 384.91 74.639C385.157 74.0003 385.532 73.4285 386.089 73.0897C386.426 72.8845 386.816 72.7703 387.199 72.8351C387.24 72.8423 387.338 72.8718 387.4 72.8926C387.532 72.9375 387.492 72.9234 387.594 72.9841C387.791 73.1019 387.806 73.1119 387.971 73.3012C388.004 73.3384 388.033 73.3774 388.065 73.415C388.084 73.4376 388.085 73.4385 388.094 73.4489C388.096 73.453 388.094 73.4507 388.104 73.4675C388.157 73.5522 388.205 73.6401 388.249 73.7312C388.271 73.7769 388.29 73.8236 388.311 73.8702C388.317 73.8843 388.316 73.882 388.319 73.8879C388.321 73.8933 388.32 73.8906 388.322 73.8992C388.358 74.008 388.386 74.1194 388.408 74.2331C388.406 74.2218 388.421 74.3328 388.427 74.3704C388.428 74.4016 388.431 74.4456 388.431 74.4542C388.433 74.5054 388.433 74.557 388.431 74.6087Z" fill="#CFE0EE"/>
<path d="M393.278 80.8339C393.115 80.592 392.742 80.4457 392.5 80.6495C391.374 81.5991 390.357 82.7176 389.311 83.7763C389.089 84.0015 389.092 84.4608 389.311 84.6869C389.558 84.9415 389.871 84.917 390.12 84.6869C390.644 84.2012 391.169 83.7151 391.693 83.2295C392.217 82.7439 392.745 82.2655 393.228 81.7286C393.444 81.489 393.458 81.0989 393.278 80.8339Z" fill="#CFE0EE"/>
<path d="M404.889 76.411C403.577 76.898 402.3 77.6337 401.08 78.3581C399.817 79.1087 398.589 79.9396 397.411 80.8515C395.083 82.6541 392.964 84.7756 391.077 87.1417C390.616 87.7197 391.351 88.5646 391.84 88.0015C393.758 85.7949 395.879 83.8328 398.161 82.1231C399.271 81.2909 400.42 80.5244 401.603 79.8308C402.849 79.101 404.146 78.5365 405.419 77.8815C406.149 77.5064 405.65 76.1283 404.889 76.411Z" fill="#CFE0EE"/>
<path d="M54.0589 136.904C54.0589 136.904 65.7774 127.318 81.4732 119.555L57.2823 78.9824L35.5203 100.888C35.5203 100.888 17.0352 111.674 1.71919 105.425L0 111.604L23.1701 149.464C23.1701 149.464 41.7674 149.17 54.0589 136.904Z" fill="#FFC5A0"/>
<path d="M34.4611 98.7735L52.265 134.34C52.265 134.34 38.4573 147.208 23.9691 143.829L2.23645 103.561C21.9867 108.431 22.221 91.4522 34.4611 98.7735Z" fill="#F5F8FC"/>
<path d="M34.4632 98.7736C33.614 87.3479 52.2668 75.752 52.2668 75.752L76.4062 117.034C76.4062 117.034 61.867 117.787 52.2668 134.34L34.4632 98.7736Z" fill="#F5F8FC"/>
<path d="M34.4613 98.7737L52.2649 134.34" stroke="#FFC5A0" stroke-miterlimit="10"/>
<path d="M21.3992 111.359C20.534 109.537 19.6965 107.674 18.6761 105.956C18.5624 105.765 18.3161 105.584 18.0999 105.682C16.0503 106.618 13.8955 107.207 11.7833 107.944C11.5643 107.891 11.3244 108.008 11.1781 108.21C10.8578 108.517 10.9579 109.132 11.2934 109.316C11.7946 110.408 12.2953 111.501 12.7956 112.593C13.0669 113.186 13.3293 113.787 13.6239 114.365C13.8614 114.831 14.1788 115.272 14.6647 115.394C15.1783 115.523 15.7288 115.256 16.1886 115.027C16.7387 114.754 17.276 114.448 17.8165 114.151C18.9257 113.543 20.0377 112.945 21.1549 112.357C21.4788 112.187 21.5543 111.685 21.3992 111.359ZM17.7137 112.714C17.258 112.973 16.8022 113.233 16.3465 113.492C16.1054 113.629 15.8663 113.771 15.6292 113.917C15.4648 114.017 15.2193 114.224 15.0288 114.186C14.694 114.118 14.5092 113.402 14.3834 113.119C14.1499 112.596 13.9056 112.08 13.6652 111.562C13.2726 110.715 12.8808 109.867 12.4878 109.021C14.301 108.299 16.0925 107.504 17.9464 106.936C18.5379 108.466 19.244 109.943 19.9489 111.412C19.2058 111.85 18.4624 112.288 17.7137 112.714Z" fill="#CFE0EE"/>
<path d="M31.5452 100.245C28.0706 98.9956 25.4689 102.937 22.3862 103.81C21.8332 103.967 22.0582 104.903 22.6096 104.77C24.1387 104.402 25.44 103.423 26.7874 102.581C28.1582 101.725 29.6568 101.07 31.2124 101.678C32.0061 101.988 32.3541 100.536 31.5452 100.245Z" fill="#CFE0EE"/>
<path d="M32.5577 103.972C31.8468 103.892 31.0744 104.017 30.3708 104.132C29.6382 104.251 28.9172 104.458 28.2224 104.743C26.8267 105.317 25.558 106.172 24.4589 107.3C23.9465 107.825 24.6936 108.638 25.2116 108.148C26.2179 107.197 27.3977 106.465 28.6496 106.018C29.262 105.799 29.8946 105.634 30.5327 105.548C31.2183 105.456 31.8734 105.524 32.5577 105.541C32.9335 105.55 33.2526 105.173 33.2526 104.757C33.2526 104.298 32.9327 104.015 32.5577 103.972Z" fill="#CFE0EE"/>
<path d="M35.0034 109.194C28.1917 109.941 23.1639 115.9 16.6653 117.698C15.9902 117.885 16.2658 119.022 16.9374 118.867C20.1688 118.121 23.0671 116.33 25.9521 114.604C28.7921 112.904 31.7442 111.195 35.0034 110.898C35.9719 110.809 35.9678 109.088 35.0034 109.194Z" fill="#CFE0EE"/>
<path d="M25.0337 118.33C24.492 118.474 24.0037 118.792 23.4966 119.042C23.0513 119.261 22.5972 119.455 22.1351 119.624C21.1581 119.981 20.1346 120.242 19.1146 120.381C18.82 120.421 18.5645 120.638 18.5645 121.001C18.5645 121.326 18.8168 121.635 19.1146 121.621C20.2511 121.567 21.3647 121.367 22.4553 121.002C22.993 120.822 23.5191 120.606 24.0347 120.357C24.5784 120.094 25.1258 119.817 25.5449 119.335C25.9199 118.905 25.5453 118.194 25.0337 118.33Z" fill="#CFE0EE"/>
<path d="M43.7783 124.016C42.9617 120.873 41.0488 117.055 37.7125 117.216C35.7839 117.309 34.1061 118.567 32.5465 119.725C30.9217 120.931 29.2399 122.037 27.5034 123.027C25.509 124.164 23.4691 125.212 21.3814 126.113C21.0667 126.249 20.99 126.612 21.0808 126.886C20.6126 126.869 20.1625 127.362 20.4607 127.977C21.2636 129.635 22.2313 131.207 23.1295 132.802C23.328 133.154 23.7424 133.322 24.0787 133.097C27.0063 131.139 30.0782 129.457 33.2638 128.103C34.8528 127.429 36.4663 126.83 38.0999 126.309C39.7271 125.791 41.4037 125.268 43.0847 125.029C43.5219 124.967 43.921 124.566 43.7783 124.016ZM37.7595 124.846C36.0926 125.373 34.4457 125.98 32.8258 126.668C29.77 127.963 26.8154 129.54 23.9795 131.362C23.2231 129.967 22.4829 128.548 21.6402 127.223C21.6313 127.209 21.6197 127.204 21.6104 127.191C21.6181 127.189 21.6241 127.191 21.6317 127.189C25.1007 126.038 28.3956 124.407 31.5169 122.351C33.9297 120.761 37.5694 117.021 40.2403 120.012C41.1485 121.029 41.6315 122.341 42.1049 123.651C40.6546 124.041 39.197 124.393 37.7595 124.846Z" fill="#CFE0EE"/>
<path d="M42.8121 126.482C41.3413 126.948 39.9002 127.679 38.4639 128.271C37.0144 128.868 35.5648 129.465 34.1157 130.063C31.2146 131.261 28.3248 132.493 25.4442 133.753C24.7638 134.051 25.025 135.292 25.7383 135.014C28.6893 133.868 31.6313 132.694 34.5618 131.482C36.0105 130.883 37.46 130.284 38.9088 129.685C40.3647 129.083 41.8975 128.581 43.3076 127.856C43.9992 127.501 43.5242 126.256 42.8121 126.482Z" fill="#CFE0EE"/>
<path d="M34.3319 134.024C33.9698 133.991 33.6222 134.219 33.3067 134.397C33.0463 134.543 32.7835 134.686 32.5182 134.821C31.9845 135.093 31.4416 135.343 30.8899 135.565C29.7317 136.031 28.5401 136.383 27.3297 136.627C27.0066 136.692 26.8181 137.125 26.8965 137.462C26.9877 137.856 27.3116 138.002 27.6375 137.951C28.8978 137.753 30.1412 137.439 31.3528 137C31.9661 136.778 32.5681 136.523 33.162 136.241C33.7307 135.972 34.5481 135.7 34.8688 135.064C35.1127 134.581 34.7836 134.066 34.3319 134.024Z" fill="#CFE0EE"/>
<path d="M49.7657 83.1663C49.0584 83.1875 48.3085 83.7475 47.6932 84.1117C47.0727 84.4791 46.4671 84.8782 45.878 85.3059C44.6282 86.2133 43.4455 87.2493 42.3572 88.3919C40.2028 90.6529 38.4282 93.3737 37.1337 96.3528C36.8211 97.0727 37.7719 97.6974 38.103 96.9734C39.3942 94.1484 41.1195 91.6251 43.1919 89.4714C44.2235 88.3991 45.3379 87.4346 46.5246 86.5893C47.0924 86.1852 47.6751 85.8078 48.2707 85.4595C48.8775 85.1043 49.7002 84.8592 50.19 84.3206C50.5561 83.9178 50.2865 83.1504 49.7657 83.1663Z" fill="#CFE0EE"/>
<path d="M43.4166 93.4976C43.2772 93.3404 43.016 93.2793 42.8452 93.4102C42.4083 93.7463 42.0844 94.1676 41.7448 94.6184C41.4097 95.0637 41.0882 95.5222 40.7631 95.977L38.8405 98.667C38.6577 98.923 38.6191 99.2768 38.8405 99.5273C39.0355 99.7461 39.4124 99.7774 39.6037 99.5273C40.2684 98.6575 40.9331 97.7873 41.5978 96.9175C41.9253 96.4894 42.2568 96.0644 42.5747 95.6268C42.9163 95.1561 43.2736 94.7013 43.4938 94.1414C43.5798 93.9221 43.5754 93.6761 43.4166 93.4976Z" fill="#CFE0EE"/>
<path d="M59.7192 95.8525C58.8709 94.1433 57.8718 92.2745 56.2033 91.4718C54.3028 90.5576 52.3148 91.4487 50.6213 92.506C48.8989 93.5824 47.2749 94.869 45.7707 96.3005C44.2453 97.7525 42.7527 99.4182 41.6488 101.303C41.6227 101.348 41.613 101.393 41.601 101.437C41.1179 101.423 40.6248 102.037 40.9471 102.596C41.994 104.411 43.2968 106.075 44.4707 107.79C44.7174 108.149 45.2085 108.038 45.4685 107.79C49.8043 103.652 54.4953 100.008 59.4628 96.9003C59.7863 96.6978 59.8976 96.2127 59.7192 95.8525ZM42.3147 102.039C42.3492 102.016 42.3846 101.997 42.4155 101.961C43.6682 100.517 44.8637 99.0472 46.2245 97.7253C47.5595 96.4278 48.9994 95.2744 50.5204 94.2719C51.9579 93.3242 53.8415 92.0186 55.5599 92.7683C56.79 93.3047 57.5724 94.6624 58.209 95.9467C53.5758 98.8819 49.1898 102.285 45.0944 106.102C44.1882 104.736 43.3025 103.326 42.3147 102.039Z" fill="#CFE0EE"/>
<path d="M60.9534 98.8868C60.4812 98.6508 60.1039 98.9031 59.6594 99.1156C59.272 99.3008 58.8906 99.5011 58.5161 99.7163C57.7469 100.158 57.0055 100.66 56.2986 101.218C54.8844 102.335 53.6302 103.651 52.5495 105.168C52.1352 105.75 52.8397 106.587 53.2926 106.006C54.3519 104.645 55.5664 103.422 56.8966 102.407C57.5588 101.902 58.2505 101.445 58.9654 101.04C59.3226 100.838 59.6863 100.649 60.0552 100.474C60.4418 100.291 60.9675 100.198 61.1612 99.738C61.2793 99.4567 61.2436 99.0317 60.9534 98.8868Z" fill="#CFE0EE"/>
<path d="M62.7898 102.097C62.6447 101.882 62.4354 101.826 62.2071 101.866C62.0231 101.897 61.8619 102.043 61.7068 102.152C61.5882 102.234 61.4697 102.316 61.3515 102.4C61.1072 102.572 60.8661 102.75 60.6229 102.926C60.1282 103.284 59.6344 103.64 59.1561 104.026C58.9516 104.192 58.8262 104.502 58.9749 104.769C59.1196 105.028 59.392 105.111 59.6331 104.973C60.1652 104.668 60.6796 104.333 61.1972 103.997C61.4556 103.83 61.7152 103.665 61.9712 103.493C62.091 103.413 62.2103 103.333 62.3293 103.253C62.3976 103.207 62.4671 103.163 62.5342 103.115C62.6644 103.022 62.7448 102.926 62.8348 102.786C62.963 102.589 62.9092 102.273 62.7898 102.097Z" fill="#CFE0EE"/>
<path d="M63.8457 106.111C63.1525 106.135 62.4243 106.6 61.7918 106.902C61.1648 107.202 60.5468 107.525 59.9383 107.869C58.6383 108.606 57.3833 109.443 56.1841 110.371C53.8131 112.207 51.6844 114.409 49.8386 116.894C49.4098 117.47 50.1291 118.307 50.5808 117.731C52.4129 115.394 54.5039 113.334 56.7977 111.59C57.927 110.732 59.1049 109.955 60.3217 109.265C60.9301 108.92 61.5486 108.597 62.1759 108.297C62.792 108.003 63.611 107.829 64.1419 107.376C64.5755 107.005 64.5104 106.088 63.8457 106.111Z" fill="#CFE0EE"/>
<path d="M51.6245 107.984C50.9023 106.957 49.6758 106.569 48.5823 107.012C47.2542 107.55 46.4745 108.948 46.1977 110.453C46.1526 110.698 46.2407 110.887 46.3773 111.002C46.7559 112.286 47.7742 113.158 48.9645 113.317C50.1243 113.472 51.2439 112.78 51.8572 111.683C52.511 110.513 52.3716 109.046 51.6245 107.984ZM50.871 110.004C50.8706 110.014 50.867 110.063 50.865 110.095C50.8601 110.125 50.8525 110.174 50.8505 110.184C50.8412 110.235 50.8292 110.284 50.8167 110.334C50.8043 110.383 50.7902 110.432 50.7749 110.481C50.7705 110.494 50.7709 110.495 50.7709 110.497C50.7665 110.505 50.7633 110.51 50.752 110.532C50.701 110.634 50.656 110.735 50.5981 110.833C50.5921 110.843 50.566 110.881 50.5499 110.905C50.5326 110.926 50.5125 110.952 50.5069 110.959C50.445 111.036 50.3795 111.108 50.3104 111.177C50.3035 111.184 50.2782 111.208 50.2581 111.227C50.2272 111.25 50.1541 111.309 50.1408 111.318C50.0632 111.374 49.9845 111.426 49.9021 111.472C49.8932 111.476 49.8603 111.494 49.8362 111.506C49.8105 111.516 49.7751 111.531 49.7663 111.534C49.6782 111.566 49.5898 111.589 49.5002 111.611C49.489 111.614 49.4918 111.614 49.4865 111.616C49.417 111.622 49.3483 111.626 49.2784 111.625C49.2318 111.625 49.1851 111.621 49.1381 111.619C49.1208 111.618 49.1188 111.619 49.1184 111.62C49.11 111.618 49.1072 111.618 49.0883 111.613C48.9734 111.587 48.8624 111.552 48.7499 111.515C48.7407 111.512 48.7214 111.504 48.7049 111.497C48.6519 111.47 48.5992 111.442 48.5478 111.411C48.4546 111.355 48.3633 111.295 48.2749 111.23C48.2673 111.224 48.242 111.205 48.2203 111.189C48.1953 111.165 48.1371 111.113 48.1282 111.104C48.0402 111.016 47.9594 110.921 47.8815 110.822C47.8505 110.783 47.8192 110.743 47.7891 110.703C47.7834 110.696 47.73 110.613 47.7147 110.593C47.6568 110.494 47.6022 110.394 47.554 110.287C47.5013 110.172 47.4294 110.095 47.3498 110.034C47.5974 109.395 47.9719 108.823 48.5289 108.485C48.8665 108.279 49.2567 108.165 49.6393 108.23C49.6807 108.237 49.7779 108.267 49.8406 108.288C49.972 108.332 49.9322 108.318 50.0339 108.379C50.2308 108.497 50.2465 108.507 50.4117 108.696C50.4442 108.733 50.4735 108.772 50.5049 108.81C50.5242 108.833 50.5258 108.833 50.5346 108.844C50.5362 108.848 50.5338 108.846 50.5447 108.862C50.5973 108.947 50.6451 109.035 50.6889 109.126C50.711 109.172 50.7307 109.218 50.7508 109.265C50.7573 109.279 50.7565 109.277 50.7593 109.283C50.7609 109.288 50.7601 109.286 50.7625 109.294C50.7978 109.403 50.8268 109.514 50.8481 109.628C50.8461 109.617 50.8609 109.728 50.8674 109.765C50.8686 109.797 50.8714 109.84 50.8714 109.849C50.873 109.9 50.873 109.952 50.871 110.004Z" fill="#CFE0EE"/>
<path d="M55.7204 116.229C55.5568 115.987 55.1839 115.841 54.942 116.044C53.8163 116.994 52.7988 118.112 51.7535 119.171C51.5309 119.396 51.5341 119.856 51.7535 120.082C52.0007 120.336 52.3137 120.312 52.5621 120.082C53.0865 119.596 53.611 119.11 54.1354 118.624C54.6595 118.139 55.1871 117.66 55.6706 117.124C55.8864 116.884 55.9 116.494 55.7204 116.229Z" fill="#CFE0EE"/>
<path d="M67.3288 111.806C66.0171 112.293 64.74 113.029 63.5203 113.753C62.2568 114.504 61.0291 115.334 59.8517 116.246C57.5236 118.049 55.4046 120.17 53.5174 122.537C53.0561 123.115 53.7907 123.96 54.2802 123.396C56.1983 121.19 58.3193 119.228 60.6012 117.518C61.7115 116.686 62.8605 115.919 64.0436 115.226C65.2889 114.496 66.5858 113.931 67.8593 113.276C68.5891 112.901 68.0904 111.523 67.3288 111.806Z" fill="#CFE0EE"/>
<path d="M189.84 162.18C191.274 167.561 188.566 173.235 183.792 174.85C179.019 176.467 173.986 173.415 172.553 168.033C171.119 162.652 173.826 156.98 178.6 155.363C183.374 153.747 188.406 156.799 189.84 162.18Z" fill="#3B3A3C"/>
<path d="M170.323 168.787C171.757 174.169 169.05 179.842 164.276 181.458C159.502 183.074 154.47 180.022 153.036 174.64C151.603 169.259 154.31 163.586 159.084 161.97C163.858 160.354 168.89 163.406 170.323 168.787Z" fill="#3B3A3C"/>
<path d="M194.493 135.747L137.158 155.16C134.543 156.045 133.059 159.152 133.845 162.099L138.268 178.703C139.085 181.769 141.952 183.508 144.671 182.587L201.628 163.303C204.348 162.382 205.89 159.151 205.073 156.085L200.65 139.481C199.864 136.534 197.108 134.861 194.493 135.747Z" fill="#3B3A3C"/>
<path d="M193.598 131.608L135.88 151.15C133.37 152 131.947 154.981 132.701 157.81L136.863 173.431C137.617 176.26 140.262 177.864 142.771 177.015L200.489 157.473C202.998 156.623 204.421 153.641 203.668 150.813L199.506 135.192C198.752 132.363 196.107 130.758 193.598 131.608Z" fill="#FF6C0E"/>
<path d="M167.837 166.678C168.891 170.633 166.901 174.802 163.392 175.99C159.884 177.178 156.185 174.935 155.131 170.98C154.078 167.025 156.067 162.855 159.576 161.668C163.084 160.48 166.783 162.723 167.837 166.678Z" fill="#FFC5A0"/>
<path d="M186.03 160.519C187.084 164.474 185.093 168.644 181.585 169.832C178.076 171.02 174.378 168.776 173.324 164.822C172.27 160.866 174.26 156.697 177.769 155.508C181.277 154.321 184.976 156.564 186.03 160.519Z" fill="#FFC5A0"/>
<path d="M183.765 160.921C184.434 163.437 183.169 166.089 180.937 166.844C178.706 167.6 176.353 166.173 175.683 163.658C175.012 161.142 176.278 158.49 178.51 157.734C180.741 156.978 183.094 158.405 183.765 160.921Z" fill="white"/>
<path d="M165.623 167.064C166.293 169.58 165.027 172.232 162.796 172.987C160.564 173.743 158.212 172.316 157.541 169.8C156.871 167.285 158.137 164.632 160.368 163.877C162.6 163.121 164.953 164.548 165.623 167.064Z" fill="white"/>
<path d="M155.385 163.236C154.65 168.92 149.967 172.856 144.925 172.027C139.883 171.198 136.392 165.919 137.127 160.236C137.862 154.552 142.545 150.617 147.587 151.445C152.629 152.273 156.12 157.553 155.385 163.236Z" fill="#FFC5A0"/>
<path d="M199.381 148.34C198.646 154.024 193.963 157.96 188.921 157.131C183.879 156.303 180.387 151.024 181.122 145.34C181.858 139.657 186.54 135.721 191.582 136.549C196.624 137.378 200.116 142.657 199.381 148.34Z" fill="#FFC5A0"/>
<path d="M178.363 153.663L158.957 160.233C158.361 160.435 157.733 160.054 157.553 159.382L153.932 145.79C153.753 145.118 154.091 144.41 154.687 144.208L174.093 137.637C174.689 137.435 175.317 137.816 175.496 138.489L179.118 152.08C179.297 152.753 178.959 153.461 178.363 153.663Z" fill="#3B3A3C"/>
<path d="M177.741 151.72L158.526 158.226C157.877 158.445 157.193 158.03 156.998 157.299L153.527 144.271C153.332 143.539 153.7 142.769 154.349 142.549L173.564 136.043C174.213 135.823 174.897 136.238 175.092 136.969L178.563 149.998C178.758 150.729 178.39 151.5 177.741 151.72Z" fill="#FFC5A0"/>
<path d="M173.055 140.123L175.144 147.966C175.424 149.014 174.897 150.123 173.963 150.44L161.235 154.748C160.936 154.85 160.631 154.856 160.343 154.78C159.746 154.632 159.231 154.129 159.041 153.418L156.952 145.576C156.796 144.991 157.09 144.374 157.609 144.198L171.832 139.382C172.352 139.206 172.899 139.538 173.055 140.123Z" fill="#D9DADE"/>
<path d="M170.58 139.806L167.646 152.578L161.548 154.642L164.483 141.87L170.58 139.806Z" fill="white"/>
<path d="M163.21 142.301L160.343 154.78C159.745 154.633 159.23 154.129 159.04 153.418L158.191 150.231L159.741 143.476L163.21 142.301Z" fill="white"/>
<path d="M173.289 141.003L174.277 144.714L172.878 150.807L170.884 151.482L173.289 141.003Z" fill="white"/>
<path d="M171.875 159.054L170.294 160.312L169.188 158.547L170.768 157.289L171.875 159.054Z" fill="#7F7F7F"/>
<path d="M146.931 157.957L146.035 159.185C145.911 159.355 145.725 159.418 145.538 159.354L144.189 158.885C143.985 158.815 143.814 158.602 143.742 158.331L143.155 156.131C143.047 155.725 143.194 155.316 143.484 155.218L145.728 154.458C146.017 154.36 146.339 154.61 146.448 155.016L147.035 157.216C147.107 157.487 147.067 157.771 146.931 157.957Z" fill="white"/>
<path d="M145.675 164.451L146.571 163.223C146.695 163.053 146.881 162.99 147.068 163.054L148.416 163.523C148.62 163.593 148.792 163.806 148.864 164.077L149.451 166.277C149.559 166.683 149.412 167.092 149.122 167.19L146.878 167.95C146.588 168.048 146.266 167.798 146.158 167.392L145.571 165.192C145.499 164.921 145.539 164.637 145.675 164.451Z" fill="white"/>
<path d="M143.097 161.045L144.136 161.862C144.279 161.975 144.326 162.153 144.262 162.336L143.795 163.662C143.724 163.863 143.531 164.039 143.291 164.12L141.339 164.781C140.978 164.903 140.627 164.778 140.553 164.501L139.982 162.358C139.908 162.083 140.141 161.76 140.501 161.638L142.453 160.977C142.693 160.895 142.94 160.922 143.097 161.045Z" fill="white"/>
<path d="M149.597 161.698L148.559 160.882C148.415 160.768 148.368 160.59 148.433 160.407L148.899 159.081C148.969 158.88 149.163 158.704 149.403 158.623L151.355 157.962C151.715 157.84 152.067 157.965 152.141 158.242L152.712 160.385C152.785 160.661 152.553 160.984 152.192 161.105L150.241 161.766C150.001 161.848 149.754 161.821 149.597 161.698Z" fill="white"/>
<path d="M152.191 151.446C151.545 151.665 150.863 151.252 150.669 150.524L150.431 149.628C150.237 148.899 150.603 148.133 151.249 147.914C151.895 147.695 152.577 148.108 152.771 148.836L153.009 149.732C153.204 150.46 152.837 151.228 152.191 151.446Z" fill="#200042"/>
<path d="M152.771 148.836C152.965 149.564 152.598 150.333 151.952 150.551C151.306 150.77 150.625 150.357 150.431 149.629C150.237 148.9 150.603 148.132 151.25 147.914C151.896 147.695 152.577 148.108 152.771 148.836Z" fill="white"/>
<path d="M180.133 141.986C179.487 142.205 178.806 141.792 178.612 141.063L178.373 140.168C178.179 139.439 178.546 138.672 179.191 138.454C179.838 138.235 180.519 138.647 180.713 139.376L180.952 140.272C181.146 141 180.779 141.767 180.133 141.986Z" fill="#200042"/>
<path d="M180.713 139.376C180.907 140.104 180.541 140.872 179.894 141.09C179.248 141.309 178.567 140.896 178.373 140.168C178.179 139.44 178.546 138.672 179.191 138.453C179.838 138.234 180.519 138.647 180.713 139.376Z" fill="white"/>
<path d="M190.973 140.862C191.325 142.184 190.66 143.576 189.488 143.973C188.316 144.369 187.081 143.62 186.729 142.299C186.377 140.978 187.042 139.585 188.213 139.189C189.385 138.792 190.621 139.541 190.973 140.862Z" fill="white"/>
<path d="M193.776 151.381C194.128 152.702 193.463 154.094 192.291 154.491C191.119 154.888 189.884 154.139 189.532 152.818C189.18 151.497 189.845 150.104 191.017 149.707C192.188 149.31 193.424 150.06 193.776 151.381Z" fill="white"/>
<path d="M187.709 147.701C188.061 149.022 187.396 150.415 186.224 150.811C185.052 151.208 183.816 150.459 183.465 149.138C183.113 147.817 183.778 146.424 184.949 146.028C186.121 145.631 187.357 146.38 187.709 147.701Z" fill="white"/>
<path d="M197.038 144.542C197.39 145.864 196.726 147.256 195.554 147.652C194.382 148.049 193.146 147.3 192.794 145.979C192.443 144.658 193.107 143.265 194.279 142.869C195.451 142.472 196.686 143.221 197.038 144.542Z" fill="white"/>
<path d="M186.57 149.015L185.06 149.526L184.606 147.824L186.116 147.313L186.57 149.015Z" fill="#FF6C0E"/>
<path d="M189.832 142.176L188.322 142.687L187.868 140.985L189.378 140.474L189.832 142.176Z" fill="#E37171"/>
<path d="M192.649 152.746L191.139 153.258L190.686 151.556L192.195 151.044L192.649 152.746Z" fill="#DF5C5C"/>
<path d="M195.915 145.907L194.405 146.418L193.951 144.716L195.461 144.205L195.915 145.907Z" fill="#FFC5A0"/>
<path d="M199.236 144.458C198.109 140.987 195.371 138.304 191.899 137.736C186.858 136.908 182.175 140.845 181.438 146.528C181.265 147.86 181.326 149.172 181.584 150.408C181.075 148.84 180.892 147.11 181.122 145.341C181.858 139.655 186.542 135.72 191.583 136.549C195.44 137.182 198.392 140.424 199.236 144.458Z" fill="#3B3A3C"/>
<path d="M155.238 159.355C154.111 155.884 151.373 153.201 147.902 152.632C142.861 151.804 138.178 155.741 137.441 161.424C137.267 162.757 137.328 164.069 137.586 165.305C137.077 163.736 136.894 162.006 137.124 160.237C137.861 154.551 142.545 150.617 147.585 151.446C151.442 152.079 154.394 155.32 155.238 159.355Z" fill="#3B3A3C"/>
</svg>
