<svg width="40" height="40" viewBox="0 0 40 40" fill="none" xmlns="http://www.w3.org/2000/svg">
<rect width="40" height="40" fill="white"/>
<path d="M6.66667 30C6.19445 30 5.79834 29.84 5.47834 29.52C5.15834 29.2 4.99889 28.8045 5.00001 28.3333C5.00001 27.8611 5.16001 27.465 5.48001 27.145C5.80001 26.825 6.19556 26.6656 6.66667 26.6667H33.3333C33.8056 26.6667 34.2017 26.8267 34.5217 27.1467C34.8417 27.4667 35.0011 27.8622 35 28.3333C35 28.8056 34.84 29.2017 34.52 29.5217C34.2 29.8417 33.8045 30.0011 33.3333 30H6.66667ZM6.66667 21.6667C6.19445 21.6667 5.79834 21.5067 5.47834 21.1867C5.15834 20.8667 4.99889 20.4711 5.00001 20C5.00001 19.5278 5.16001 19.1317 5.48001 18.8117C5.80001 18.4917 6.19556 18.3322 6.66667 18.3333H33.3333C33.8056 18.3333 34.2017 18.4933 34.5217 18.8133C34.8417 19.1333 35.0011 19.5289 35 20C35 20.4722 34.84 20.8683 34.52 21.1883C34.2 21.5083 33.8045 21.6678 33.3333 21.6667H6.66667ZM6.66667 13.3333C6.19445 13.3333 5.79834 13.1733 5.47834 12.8533C5.15834 12.5333 4.99889 12.1378 5.00001 11.6667C5.00001 11.1945 5.16001 10.7983 5.48001 10.4783C5.80001 10.1583 6.19556 9.99889 6.66667 10H33.3333C33.8056 10 34.2017 10.16 34.5217 10.48C34.8417 10.8 35.0011 11.1956 35 11.6667C35 12.1389 34.84 12.535 34.52 12.855C34.2 13.175 33.8045 13.3345 33.3333 13.3333H6.66667Z" fill="#FF6C0E"/>
</svg>
