<svg width="154" height="27" viewBox="0 0 154 27" fill="none" xmlns="http://www.w3.org/2000/svg">
<path d="M138.284 26.4865L153.5 13.9509L138.284 1.4153C138.147 1.2674 137.972 1.14542 137.772 1.05763C137.572 0.969838 137.352 0.918278 137.125 0.906441C136.899 0.894604 136.672 0.922767 136.46 0.989023C136.248 1.05528 136.056 1.15808 135.897 1.29047C135.738 1.42286 135.615 1.58174 135.537 1.75636C135.459 1.93099 135.428 2.11727 135.446 2.30261C135.464 2.48794 135.53 2.668 135.64 2.8306C135.75 2.99319 135.901 3.13453 136.083 3.24503L147.467 12.6532L117.178 12.6532C116.758 12.6532 116.356 12.7899 116.059 13.0333C115.762 13.2767 115.595 13.6067 115.595 13.9509C115.595 14.2951 115.762 14.6251 116.059 14.8685C116.356 15.1119 116.758 15.2486 117.178 15.2486L147.467 15.2486L136.083 24.6568C135.787 24.9011 135.622 25.2319 135.623 25.5762C135.625 25.9206 135.793 26.2503 136.091 26.493C136.389 26.7356 136.793 26.8712 137.213 26.87C137.633 26.8688 138.036 26.7308 138.332 26.4865L138.284 26.4865Z" fill="#3B3A3C"/>
<line x1="118.266" y1="13.9587" y2="13.9587" stroke="#3B3A3C" stroke-width="2.5"/>
</svg>
