<svg width="494" height="304" viewBox="0 0 494 304" fill="none" xmlns="http://www.w3.org/2000/svg">
<path d="M227.633 194.117C226.745 193.412 225.703 193.768 222.649 192.448C222.057 192.192 220.51 191.8 219.818 191.678C219.688 191.655 219.584 191.561 219.547 191.435C218.542 187.986 214.123 172.036 213.567 167.418C212.997 162.697 209.445 142.708 208.903 139.669C208.866 139.462 208.656 139.336 208.456 139.398L199.748 142.061C199.569 142.115 199.464 142.3 199.51 142.481C200.111 144.859 203.856 159.793 205.036 167.368C205.976 173.407 215.487 192.619 215.699 193.858C215.701 193.869 215.703 193.88 215.705 193.891C215.769 194.264 216.096 194.533 216.474 194.523C218.701 194.468 225.84 194.29 226.247 194.282C226.619 194.273 227.91 194.337 227.633 194.117Z" fill="#FFB4AB"/>
<path d="M206.853 132.128C202.185 117.968 196.965 118.572 196.965 118.572L201.002 148.341C203.884 147.553 207.638 145.798 210.517 144.985C209.562 140.509 208.003 135.615 206.853 132.128Z" fill="#1F4163"/>
<path d="M207.131 96.5967C206.629 87.1881 198.906 79.693 189.691 83.3198C187.619 84.1353 184.746 85.9223 183.21 87.5355C179.058 91.8969 177.537 97.6408 173.279 101.852C174.57 103.05 176.15 104.33 178.056 105.597L180.738 102.673L179.532 106.533C185.139 109.934 193.221 113.084 204.599 114.146C206.667 107.85 207.399 101.616 207.131 96.5967Z" fill="#FF6C0E"/>
<path d="M206.802 301.583C205.457 300.592 204.372 299.936 200.076 297.853C199.796 297.717 198.776 297.067 198.408 296.842C197.476 296.271 196.539 295.374 195.733 294.474C194.963 293.615 194.595 290.86 194.422 288.665C194.864 283.763 201.968 205.141 203.466 196.629C205.013 187.844 202.657 174.442 202.657 174.442L197.173 172.374L186.762 208.456L187.583 235.922C187.583 235.922 185.135 243.839 184.826 248.57C184.517 253.301 188.365 291.702 188.365 291.702C188.365 293.075 188.311 294.316 188.159 295.092C187.876 296.528 186.302 299.486 187.024 300.837C187.746 302.189 188.571 302.527 188.571 302.527L207.278 302.829C208.297 302.846 207.624 302.188 206.802 301.583Z" fill="#FFB4AB"/>
<path d="M178.412 171.624C178.412 171.624 171.916 181.424 170.37 189.534C168.823 197.644 171.505 222.566 168.53 233.194C166.919 238.947 160.815 247.831 159.887 255.265C158.959 262.699 155.73 284.156 155.73 284.156C155.241 286.408 154.477 289.194 153.484 290.489C152.876 291.282 151.765 292.286 151.036 293.719C149.901 295.949 150.529 299.269 151.366 301.098C151.795 302.036 151.335 302.034 152.314 302.336C155.211 303.232 158.293 301.724 159.527 298.943C160.216 297.389 160.82 295.316 160.942 292.705C161.071 289.937 161.504 287.738 161.965 286.111L182.728 235.178L197.76 191.221L201.611 168.584L178.412 171.624Z" fill="#F7A192"/>
<path d="M160.089 297.479C155.595 298.3 152.604 295.665 151.048 293.693C149.906 295.928 149.35 299.263 150.19 301.098C150.93 302.715 153.092 302.669 154.795 302.732C156.595 302.799 157.987 301.797 158.88 300.226C159.297 299.492 159.729 298.577 160.089 297.479Z" fill="#8CB5F2"/>
<path d="M198.405 296.843C193.458 298.115 189.801 297.249 187.755 296.423C187.228 297.921 186.528 299.801 186.899 300.885C187.353 302.212 188 302.514 188.571 302.529C193.09 302.648 205.124 302.809 208.569 302.854C209.05 302.861 209.316 302.297 209.006 301.927C208.152 300.904 198.774 297.069 198.405 296.843Z" fill="#8CB5F2"/>
<path d="M182.623 234.217C183.011 234.243 183.402 234.269 183.795 234.293C183.815 234.294 183.835 234.295 183.855 234.296C184.241 234.319 184.628 234.342 185.016 234.362C185.04 234.363 185.064 234.363 185.087 234.365C185.476 234.385 185.866 234.403 186.257 234.42C186.277 234.421 186.297 234.422 186.316 234.422C186.714 234.439 187.112 234.455 187.511 234.468C191.945 234.613 197.423 234.557 200.937 233.959C202.728 216.025 203.396 199.657 204.059 196.034C205.667 187.249 202.657 173.381 202.657 173.381L201.221 173.123L202.129 167.989L178.003 171.03C178.003 171.03 171.248 180.828 169.64 188.938C168.032 197.048 170.821 221.971 167.727 232.599C167.727 232.599 174.614 233.672 182.623 234.217Z" fill="#3B3A3C"/>
<path d="M185.175 115.676C185.175 115.676 177.624 114.497 174.129 118.128C170.636 121.759 179.815 151.843 180.315 156.587C180.816 161.332 176.732 173.813 176.732 173.813C176.732 173.813 196.828 178.389 202.696 174.705C202.696 174.705 204.162 140.713 203.628 137.319C203.094 133.926 198.283 120.059 197.08 118.677C195.876 117.295 185.175 115.676 185.175 115.676Z" fill="#3F5B8F"/>
<path d="M189.008 104.205C189.008 104.205 188.946 104.455 188.839 104.881C188.318 106.923 186.387 113.685 185.267 115.504C183.912 117.703 188.749 125.326 193.93 124.78C195.472 124.618 193.085 118.016 193.266 117.346C193.611 116.062 194.081 114.311 194.561 112.515C194.832 111.503 195.106 110.476 195.363 109.511C196.096 106.768 196.695 104.524 196.695 104.524L189.008 104.205Z" fill="#F7A896"/>
<path d="M188.84 104.881C188.949 104.455 189.009 104.205 189.009 104.205L196.697 104.524C196.697 104.524 196.099 106.768 195.366 109.511C195.11 110.471 194.836 111.491 194.567 112.498C193.394 112.245 192.194 111.586 191.025 110.414C189.751 109.136 188.959 107.65 188.526 106.092C188.652 105.611 188.759 105.197 188.84 104.881Z" fill="#FF6C0E"/>
<path d="M195.338 87.0656C195.338 87.0656 191.748 86.4056 189.285 89.1941C186.822 91.9827 183.773 100.909 189.077 106.226C194.38 111.542 200.318 106.319 201.538 100.443C202.758 94.5671 203.558 87.3975 195.338 87.0656Z" fill="#F7A896"/>
<path d="M203.21 100.466C202.451 101.731 201.274 102.383 200.582 101.92C199.89 101.456 199.945 100.055 200.704 98.7899C201.463 97.5245 202.641 96.8743 203.333 97.3383C204.024 97.8013 203.97 99.2008 203.21 100.466Z" fill="#F7A896"/>
<path d="M195.806 86.1205C195.806 86.1205 190.398 94.4436 186.914 94.6125C183.43 94.7814 182.671 99.343 182.671 99.343C182.671 99.343 184.612 88.8428 188.17 87.0292C191.728 85.2166 195.806 86.1205 195.806 86.1205Z" fill="#FF6C0E"/>
<path d="M187.679 96.8433C187.858 98.3966 187.198 99.7669 186.206 99.9032C185.214 100.04 184.265 98.89 184.086 97.3367C183.907 95.7834 184.566 94.4132 185.558 94.2768C186.551 94.1404 187.499 95.29 187.679 96.8433Z" fill="#F7A896"/>
<path d="M191.564 102.703L196.725 104.08C196.725 104.08 196.084 106.009 193.797 105.469C191.008 104.81 191.564 102.703 191.564 102.703Z" fill="white"/>
<path d="M134.474 142.21C134.214 141.428 138.005 140.86 138.219 140.077C138.433 139.293 133.458 139.155 133.291 138.46C132.983 137.182 138.748 138.278 138.644 137.681C138.54 137.084 132.65 135.662 133.304 134.651C133.959 133.639 139.258 136.763 139.43 136.072C139.604 135.382 134.241 133.611 134.362 132.094C134.427 131.282 143.141 136.281 144.168 135.855C145.195 135.43 143.138 131.58 143.959 131.026C144.779 130.472 146.979 138.833 147.534 139.119C148.088 139.405 159.86 146.37 164.069 147.513C164.604 146.106 168.41 138.66 168.883 137.329C171.228 139.053 173.972 139.464 176.395 141.04C174.553 145.456 168.291 156.299 167.047 156.838C163.259 158.478 148.903 146.187 146.032 144.077C143.158 141.965 141.484 142.609 139.53 141.926C137.575 141.242 134.733 142.992 134.474 142.21Z" fill="#F7A896"/>
<path d="M174.777 148.771C174.777 148.771 183.487 133.511 184.037 128.052C184.587 122.593 179.483 116.159 174.69 116.945C169.898 117.73 164.667 142.761 164.667 142.761L174.777 148.771Z" fill="#1F4163"/>
<path d="M340.117 192.06L365.4 185.163C365.4 185.163 371.13 173.82 379.6 161.596C382.464 164.353 384.094 168.626 386.978 171.355L370.737 192.446C369.987 193.299 338.253 196.958 338.253 196.958L340.117 192.06Z" fill="#FFB4AB"/>
<path d="M376.828 133.338C376.237 128.554 376.557 123.757 378.34 119.113C379.874 115.117 384.267 112.563 388.436 112.216C401.673 111.119 404.784 128.472 413.762 134.532C416.504 136.383 419.52 137.827 422.138 139.851C431.804 147.326 428.992 162.855 421.319 170.726C415.994 176.188 407.216 179.761 399.832 176.434C395.976 174.697 392.9 171.538 390.602 167.989C387.341 162.952 385.02 157.023 382.549 151.573C379.917 145.772 377.614 139.696 376.828 133.338Z" fill="#F7CE85"/>
<path d="M384.252 176.479C384.252 176.479 394.15 166.194 396.684 161.738C399.22 157.281 394.928 160.2 390.517 159.061C388.846 158.63 389.203 148.856 386.072 152.054C380.935 157.299 374.494 166.454 374.494 166.454L384.252 176.479Z" fill="#9BDACB"/>
<path d="M125.479 193.032C125.805 192.576 125.074 191.743 124.525 191.119C123.918 190.427 120.138 188.591 119.491 188.363C118.946 188.168 114.846 188.527 112.264 189.009L112.265 189.007L84.1226 180.893C84.1226 180.893 78.3008 168.748 69.5971 155.609C66.5014 158.467 64.6796 162.959 61.563 165.786L76.6907 187.953C77.2239 188.585 94.0119 191.201 104.45 192.773C107.088 193.171 109.303 193.498 110.765 193.713C112.86 194.234 114.338 194.774 114.597 194.779C116.114 194.808 118.962 193.344 119.618 193.139C120.272 192.935 121.571 193.175 122.431 193.625C123.289 194.076 125.802 195.166 126.239 194.957C126.677 194.749 125.479 193.032 125.479 193.032Z" fill="#FFB4AB"/>
<path d="M71.0689 178.047C71.0689 178.047 63.1265 166.962 60.2504 161.736C57.3744 156.509 62.3194 159.976 67.4696 158.724C69.4208 158.249 68.0323 147.625 71.6227 151.396C77.5124 157.583 83.2702 170.841 83.2702 170.841L71.0689 178.047Z" fill="#B8510F"/>
<path d="M380.448 47.1837H448.276C451.583 47.1837 454.265 49.8737 454.265 53.1927V92.8447C454.265 96.1627 451.583 98.8537 448.276 98.8537H400.816C397.765 103.126 392.233 110.776 391.744 110.776C391.287 110.776 392.167 103.55 392.788 98.8537H380.448C377.14 98.8537 374.459 96.1627 374.459 92.8447V53.1927C374.459 49.8737 377.14 47.1837 380.448 47.1837Z" fill="#CCE2F9"/>
<path d="M73.711 57.8075H5.981C2.678 57.8075 0 60.4945 0 63.8085V103.402C0 106.716 2.678 109.403 5.981 109.403H53.373C56.419 113.669 61.943 121.308 62.431 121.308C62.887 121.308 62.008 114.092 61.389 109.403H73.711C77.014 109.403 79.691 106.716 79.691 103.402V63.8085C79.691 60.4945 77.014 57.8075 73.711 57.8075Z" fill="#CCE2F9"/>
<path d="M193.954 16.1217H126.224C122.921 16.1217 120.244 18.8097 120.244 22.1237V61.7167C120.244 65.0307 122.921 67.7187 126.224 67.7187H173.616C176.662 71.9847 182.186 79.6237 182.674 79.6237C183.13 79.6237 182.252 72.4077 181.632 67.7187H193.954C197.257 67.7187 199.934 65.0307 199.934 61.7167V22.1237C199.934 18.8097 197.257 16.1217 193.954 16.1217Z" fill="#9BDACB"/>
<path d="M150.402 30.3297H128.602C128.51 30.3297 128.435 30.2547 128.435 30.1627V27.7847C128.435 27.6927 128.51 27.6177 128.602 27.6177H150.402C150.494 27.6177 150.569 27.6927 150.569 27.7847V30.1627C150.569 30.2547 150.494 30.3297 150.402 30.3297Z" fill="white"/>
<path d="M141.768 39.1877H128.602C128.509 39.1877 128.436 39.1127 128.436 39.0207V36.6427C128.436 36.5507 128.509 36.4757 128.602 36.4757H141.768C141.86 36.4757 141.934 36.5507 141.934 36.6427V39.0207C141.934 39.1127 141.86 39.1877 141.768 39.1877Z" fill="white"/>
<path d="M161.406 39.1877H145.792C145.7 39.1877 145.625 39.1127 145.625 39.0207V36.6427C145.625 36.5507 145.7 36.4757 145.792 36.4757H161.406C161.498 36.4757 161.573 36.5507 161.573 36.6427V39.0207C161.573 39.1127 161.498 39.1877 161.406 39.1877Z" fill="white"/>
<path d="M191.467 39.1877H166.087C165.995 39.1877 165.92 39.1127 165.92 39.0207V36.6427C165.92 36.5507 165.995 36.4757 166.087 36.4757H191.467C191.559 36.4757 191.634 36.5507 191.634 36.6427V39.0207C191.634 39.1127 191.559 39.1877 191.467 39.1877Z" fill="white"/>
<path d="M191.576 30.3297H157.755C157.662 30.3297 157.588 30.2547 157.588 30.1627V27.7847C157.588 27.6927 157.662 27.6177 157.755 27.6177H191.576C191.668 27.6177 191.742 27.6927 191.742 27.7847V30.1627C191.742 30.2547 191.668 30.3297 191.576 30.3297Z" fill="white"/>
<path d="M191.576 56.5357H128.602C128.509 56.5357 128.435 56.4607 128.435 56.3687V53.9907C128.435 53.8987 128.509 53.8237 128.602 53.8237H191.576C191.668 53.8237 191.743 53.8987 191.743 53.9907V56.3687C191.743 56.4607 191.668 56.5357 191.576 56.5357Z" fill="white"/>
<path d="M156.988 47.9637H128.602C128.51 47.9637 128.436 47.8887 128.436 47.7967V45.4187C128.436 45.3267 128.51 45.2517 128.602 45.2517H156.988C157.08 45.2517 157.154 45.3267 157.154 45.4187V47.7967C157.154 47.8887 157.08 47.9637 156.988 47.9637Z" fill="white"/>
<path d="M191.576 47.9637H162.928C162.836 47.9637 162.761 47.8887 162.761 47.7967V45.4187C162.761 45.3267 162.836 45.2517 162.928 45.2517H191.576C191.668 45.2517 191.743 45.3267 191.743 45.4187V47.7967C191.743 47.8887 191.668 47.9637 191.576 47.9637Z" fill="white"/>
<path d="M274.249 10.0416H336.777C340.079 10.0416 342.758 12.7296 342.758 16.0436V55.6366C342.758 58.9506 340.079 61.6386 336.777 61.6386H294.586C291.54 65.9046 286.016 73.5436 285.529 73.5436C285.072 73.5436 285.95 66.3276 286.57 61.6386H274.249C270.946 61.6386 268.268 58.9506 268.268 55.6366V16.0436C268.268 12.7296 270.946 10.0416 274.249 10.0416Z" fill="#FF6C0E"/>
<path d="M335.798 30.3956H320.219H305.399C305.297 30.3956 305.214 30.4786 305.214 30.5796V32.9226C305.214 33.0246 305.297 33.1076 305.399 33.1076H320.219H320.978H335.798C335.9 33.1076 335.982 33.0246 335.982 32.9226V30.5796C335.982 30.4786 335.9 30.3956 335.798 30.3956Z" fill="white"/>
<path d="M275.319 33.1076H300.699C300.791 33.1076 300.866 33.0326 300.866 32.9406V30.5626C300.866 30.4706 300.791 30.3956 300.699 30.3956H275.319C275.227 30.3956 275.152 30.4706 275.152 30.5626V32.9406C275.152 33.0326 275.227 33.1076 275.319 33.1076Z" fill="white"/>
<path d="M275.211 24.2496H309.032C309.125 24.2496 309.198 24.1746 309.198 24.0826V21.7046C309.198 21.6126 309.125 21.5376 309.032 21.5376H275.211C275.119 21.5376 275.044 21.6126 275.044 21.7046V24.0826C275.044 24.1746 275.119 24.2496 275.211 24.2496Z" fill="white"/>
<path d="M315.147 24.2496H335.815C335.908 24.2496 335.982 24.1746 335.982 24.0826V21.7046C335.982 21.6126 335.908 21.5376 335.815 21.5376H315.147C315.055 21.5376 314.98 21.6126 314.98 21.7046V24.0826C314.98 24.1746 315.055 24.2496 315.147 24.2496Z" fill="white"/>
<path d="M275.044 50.4547H335.982V47.7427H275.044V50.4547Z" fill="white"/>
<path d="M307.002 41.8827H335.982V39.1707H307.002V41.8827Z" fill="white"/>
<path d="M275.152 41.8827H304.132V39.1707H275.152V41.8827Z" fill="white"/>
<path d="M82.0394 289.606C82.0394 289.606 81.6064 296.781 81.6034 296.795C81.4444 297.706 80.8164 299.957 80.8164 300.785C80.8164 303.896 95.5884 298.144 92.2784 296.765C91.9784 296.641 90.4084 295.697 90.3104 294.638C90.1584 293.007 89.7734 289.707 89.7734 289.707L82.0394 289.606Z" fill="#F7A896"/>
<path d="M91.6573 296.152C91.6573 296.152 88.1893 297.104 86.4133 297.341C84.6363 297.579 82.2943 295.576 81.0383 296.117C79.6553 296.713 79.7093 302.074 79.7093 302.074C79.7093 302.074 98.3083 303.6 103.538 302.022C105.609 301.396 98.7473 298.368 91.6573 296.152Z" fill="#B8510F"/>
<path d="M107.116 289.606C107.116 289.606 106.683 296.781 106.68 296.795C106.521 297.706 105.893 299.957 105.893 300.785C105.893 303.896 120.665 298.144 117.355 296.765C117.055 296.641 114.818 296.245 114.72 295.186C114.568 293.555 114.285 288.51 114.285 288.51L107.116 289.606Z" fill="#F7A896"/>
<path d="M116.733 296.152C116.733 296.152 113.265 297.104 111.489 297.341C109.712 297.579 107.37 295.576 106.114 296.117C104.731 296.713 104.785 302.074 104.785 302.074C104.785 302.074 123.384 303.6 128.614 302.022C130.685 301.396 123.823 298.368 116.733 296.152Z" fill="#B8510F"/>
<path d="M59.5299 212.642L94.8409 212.794C94.8409 212.794 110.791 212.376 113.312 217.892C115.834 223.408 115.234 293.459 115.234 293.459C115.234 293.459 106.721 294.725 106.285 294.257L96.6979 252.319C95.6729 248.764 95.3239 245.047 95.6699 241.364L96.5849 231.61L82.0159 232.354C82.0159 232.354 65.4979 232.091 60.0519 226.613C54.6059 221.134 59.5299 212.642 59.5299 212.642Z" fill="#3B3A3C"/>
<path d="M35.5947 208.748L73.5617 211.078C73.5617 211.078 89.9017 212.406 92.4227 217.921C94.9447 223.437 90.8137 294.089 90.8137 294.089C90.8137 294.089 81.3357 294.674 81.3547 294.258C81.3777 293.764 77.4647 261.895 75.2947 251.803C74.6057 248.6 74.3647 245.317 74.5777 242.048L75.9487 230.738C75.9487 230.738 40.6827 230.537 38.9327 228.776C33.4867 223.298 35.5947 208.748 35.5947 208.748Z" fill="#3B3A3C"/>
<path d="M70.6219 150.632C65.3504 148.986 55.4567 148.066 55.4567 148.066C55.4567 148.066 49.2593 147.005 47.2387 147.425C44.2645 148.042 38.6892 148.291 38.0642 161.17C37.6166 170.387 36.377 193.188 35.197 208.583L72.9667 211.191C71.4537 187.478 75.6131 152.19 70.6219 150.632Z" fill="#FF6C0E"/>
<path d="M60.9199 137.114L54.7505 147.899C54.7505 147.899 59.0482 155.963 63.2717 156.266C66.816 156.522 66.3715 151.265 66.3715 151.265C66.3715 151.265 67.0759 144.495 68.8442 141.493C70.6134 138.493 60.9199 137.114 60.9199 137.114Z" fill="#F7A896"/>
<path d="M61.3663 141.496C62.6673 142.945 64.8523 144.866 67.239 146.109C67.6268 144.414 68.1526 142.667 68.8441 141.493C69.6602 140.109 68.0343 139.07 66.0474 138.352C63.3814 137.582 60.9199 137.114 60.9199 137.114L59.7338 139.187C60.0079 139.929 60.9327 141.013 61.3663 141.496Z" fill="#FF6C0E"/>
<path d="M64.743 118.79C64.5052 118.606 58.1117 132.006 60.4529 137.013C62.7951 142.019 69.3674 145.526 72.8471 143.296C76.6966 140.828 81.4005 125.729 77.1077 119.973C72.8138 114.216 64.743 118.79 64.743 118.79Z" fill="#F7A896"/>
<path d="M77.398 111.797C72.8115 111.29 69.1775 113.023 67.7919 113.815C65.7641 113.418 62.7597 113.643 58.5554 117.302C53.3859 121.802 53.8866 128.79 56.8365 133.089C59.7853 137.388 58.6033 140.876 58.6033 140.876L59.8066 139.263C60.7072 138.037 61.3625 136.64 61.6732 135.149C61.86 134.255 61.9748 133.259 61.8649 132.375C61.5726 130.045 64.9789 129.655 66.3546 128.236C67.414 127.144 68.4009 124.182 70.1029 122.361L71.8381 121.11C71.8381 121.11 75.3216 119.84 77.8512 121.328C80.3798 122.817 83.2827 112.448 77.398 111.797Z" fill="#F7CE85"/>
<path d="M65.3697 130.67C64.8488 132.388 63.621 133.537 62.6292 133.236C61.6374 132.936 61.2553 131.299 61.7762 129.581C62.2982 127.863 63.525 126.714 64.5168 127.015C65.5096 127.315 65.8907 128.951 65.3697 130.67Z" fill="#F7A896"/>
<path d="M69.8946 137.038L75.3829 138.495C75.3829 138.495 74.7025 140.547 72.2704 139.975C69.3048 139.279 69.8946 137.038 69.8946 137.038Z" fill="white"/>
<path d="M115.139 195.283C115.471 194.884 114.856 194.066 114.395 193.453C113.883 192.773 110.53 190.814 109.95 190.558C109.369 190.301 104.123 190.405 102.07 190.814C100.017 191.221 98.7477 190.798 98.7477 190.798C98.2427 190.63 97.4808 190.395 96.8913 190.196L96.8681 190.257L68.5164 181.172C68.5164 181.172 60.1145 170.623 52.3264 158.582C49.2016 160.905 47.5879 167.381 44.4476 169.675L62.7099 189.828C63.2885 190.684 91.1822 194.166 95.0984 194.652L95.0964 194.652C95.1312 194.656 95.1661 194.66 95.1999 194.664C95.4397 194.693 95.5681 194.709 95.5681 194.709L95.5682 194.706C100.06 195.217 104.56 196.086 104.987 196.127C106.384 196.26 109.112 195.111 109.731 194.968C110.348 194.825 111.526 195.139 112.286 195.615C113.046 196.09 115.284 197.272 115.702 197.11C116.121 196.948 115.139 195.283 115.139 195.283Z" fill="#F7A896"/>
<path d="M50.9086 179.877C50.9086 179.877 41.302 167.024 39.0033 162.012C36.7044 157.002 39.4891 149.23 44.3207 148.422C49.1523 147.614 62.512 170.578 62.512 170.578L50.9086 179.877Z" fill="#B8510F"/>
<path d="M34.2468 95.565C34.2468 97.635 36.9558 99.314 40.2988 99.314C43.6418 99.314 46.3528 97.635 46.3528 95.565C46.3528 93.495 43.6418 91.816 40.2988 91.816C36.9558 91.816 34.2468 93.495 34.2468 95.565Z" fill="#B1B2B8"/>
<path d="M40.2998 15.91C55.3728 15.91 67.5918 28.13 67.5918 43.203C67.5918 51.438 63.9438 58.82 58.1758 63.824C58.1548 63.846 53.9118 68.433 53.2118 73.236L53.0858 76.176C53.0438 77.14 52.6658 78.058 52.0168 78.772C51.9588 78.835 51.8988 78.897 51.8378 78.956H28.7608C28.7008 78.897 28.6408 78.835 28.5828 78.772C27.9338 78.058 27.5558 77.14 27.5138 76.176L27.3868 73.236C26.6878 68.433 22.4448 63.846 22.4238 63.824C16.6558 58.82 13.0078 51.438 13.0078 43.203C13.0078 28.13 25.2268 15.91 40.2998 15.91Z" fill="#F7CE85"/>
<path d="M39.2019 95.9841H41.3979C47.1959 95.9841 51.8959 91.2841 51.8959 85.4861V78.9561H28.7039V85.4861C28.7039 91.2841 33.4039 95.9841 39.2019 95.9841Z" fill="#5C5568"/>
<path d="M33.4578 64.068C48.5388 64.068 60.7648 51.842 60.7648 36.761C60.7648 30.638 58.7488 24.986 55.3458 20.431C62.7238 25.316 67.5908 33.69 67.5908 43.202C67.5908 51.437 63.9428 58.821 58.1748 63.825C58.1548 63.846 53.9118 68.432 53.2118 73.235L53.0848 76.175C53.0428 77.139 52.6648 78.058 52.0158 78.772C51.9588 78.835 51.8988 78.896 51.8378 78.955H28.7608C28.6998 78.896 28.6398 78.835 28.5828 78.772C27.9338 78.058 27.5558 77.139 27.5138 76.175L27.3868 73.235C26.6868 68.432 22.4438 63.846 22.4238 63.825C20.9648 62.559 19.6418 61.14 18.4788 59.594C22.7798 62.422 27.9258 64.068 33.4578 64.068Z" fill="#EBB45C"/>
<path d="M40.4918 56.4381L45.9158 32.7851L50.6748 46.5431L52.0708 46.0601L45.6268 27.4341L40.0928 51.5681L34.4268 37.7341L29.1768 46.5961L30.4478 47.3491L34.1848 41.0401L40.4918 56.4381Z" fill="white"/>
<path d="M47.3269 82.51L47.4569 82.523C48.1419 82.594 48.7559 82.096 48.8259 81.411L52.6189 44.79C52.6899 44.105 52.1919 43.491 51.5069 43.42L51.3759 43.407C50.6909 43.336 50.0779 43.833 50.0069 44.519L46.2149 81.141C46.1439 81.826 46.6419 82.439 47.3269 82.51Z" fill="#5C5568"/>
<path d="M33.1928 82.5171C32.4718 82.5921 31.8268 82.0671 31.7518 81.3461L27.9728 44.8541C27.8978 44.1331 28.4218 43.4891 29.1438 43.4141C29.8648 43.3401 30.5098 43.8631 30.5848 44.5841L34.3638 81.0771C34.4378 81.7981 33.9138 82.4421 33.1928 82.5171Z" fill="#5C5568"/>
<path d="M28.8738 81.5221H51.7118C52.3528 81.5221 52.8738 81.0031 52.8738 80.3611V80.1171C52.8738 79.4751 52.3528 78.9561 51.7118 78.9561H28.8738C28.2318 78.9561 27.7118 79.4751 27.7118 80.1171V80.3611C27.7118 81.0031 28.2318 81.5221 28.8738 81.5221Z" fill="#B1B2B8"/>
<path d="M28.8738 86.669H51.7118C52.3528 86.669 52.8738 86.15 52.8738 85.508V85.264C52.8738 84.622 52.3528 84.103 51.7118 84.103H28.8738C28.2318 84.103 27.7118 84.622 27.7118 85.264V85.508C27.7118 86.15 28.2318 86.669 28.8738 86.669Z" fill="#B1B2B8"/>
<path d="M30.2108 92.429H50.3748C51.0168 92.429 51.5368 91.91 51.5368 91.268V91.024C51.5368 90.382 51.0168 89.863 50.3748 89.863H30.2108C29.5688 89.863 29.0488 90.382 29.0488 91.024V91.268C29.0488 91.91 29.5688 92.429 30.2108 92.429Z" fill="#B1B2B8"/>
<path d="M435.291 22.5495C433.803 23.6029 432.354 24.7087 430.847 25.732C430.572 25.9191 430.029 25.9714 429.735 25.8284C427.837 24.9036 425.992 23.8692 424.089 22.9573C423.535 22.6912 423.283 22.448 423.276 21.8174C423.249 19.5977 423.162 17.3778 423.095 15.1582C423.084 14.7986 423.062 14.4389 423.031 13.8132C419.736 13.6188 416.478 13.426 413.137 13.2289C412.695 15.8875 412.255 18.2976 411.913 20.7221C411.793 21.5772 411.539 21.9721 410.618 22.2037C408.734 22.6777 406.916 23.4141 405.054 23.987C404.769 24.0752 404.295 23.9807 404.075 23.7834C402.396 22.2821 400.709 20.7826 399.125 19.1826C398.365 18.4152 397.792 18.4375 397.054 19.1006C396.77 19.3551 396.394 19.5069 396.061 19.7061C394.76 20.8394 393.459 21.9727 392.159 23.1061C392.056 23.2708 391.978 23.4586 391.848 23.598C390.484 25.0655 390.625 24.7365 391.701 26.2672C393.012 28.1315 394.354 29.974 395.508 31.5825C394.257 34.1447 393.089 36.541 391.881 39.0145C389.159 39.097 386.316 39.1825 383.454 39.2692C382.695 42.5564 382.594 45.8034 382.868 49.1298C385.484 49.5593 388.035 49.9851 390.587 50.391C391.046 50.4644 391.292 50.5866 391.447 51.1206C392.052 53.2125 392.711 55.2925 393.457 57.3376C393.673 57.9268 393.568 58.2132 393.186 58.6152C391.613 60.2749 390.077 61.9707 388.511 63.6364C388.121 64.0509 388.016 64.3743 388.359 64.9194C389.898 67.3617 391.889 69.3837 394.066 71.2467C394.496 71.6145 394.802 71.4554 395.189 71.1709C396.98 69.8555 398.802 68.584 400.583 67.256C401.096 66.873 401.432 66.823 402.045 67.1697C404.166 68.3677 406.358 69.4425 408.696 70.6536C408.77 73.1284 408.854 75.9349 408.939 78.7416C412.285 79.5286 415.559 79.7874 418.905 79.436C419.36 76.5795 419.802 73.799 420.203 71.2814C422.432 70.4587 424.523 69.7465 426.56 68.9024C427.329 68.5829 427.794 68.65 428.378 69.2268C429.935 70.7637 431.553 72.2405 433.161 73.7253C433.479 74.0179 433.803 74.4816 434.333 74.013C436.489 72.1049 438.647 70.1998 440.802 68.2916C441.26 67.8854 441.21 67.5003 440.849 67.015C439.504 65.2049 438.239 63.3361 436.863 61.5501C436.334 60.861 436.481 60.391 436.848 59.7095C437.755 58.0263 438.632 56.3166 439.346 54.547C439.654 53.7834 439.961 53.5781 440.744 53.5758C443.257 53.5703 445.771 53.4665 448.232 53.4017C448.95 51.4944 449.283 45.6857 448.826 43.374C446.3 42.982 443.749 42.5576 441.19 42.2056C440.55 42.1184 440.363 41.8483 440.179 41.2636C439.582 39.3758 438.852 37.5322 438.236 35.6506C438.133 35.3338 438.211 34.7983 438.425 34.5617C439.779 33.0609 441.186 31.6064 442.592 30.1526C443.377 29.3394 443.697 29.0152 443.588 28.5481L437.557 21.6259C436.944 21.3839 436.494 21.697 435.291 22.5495ZM426.936 36.6669C432.328 42.8543 431.683 52.2411 425.496 57.6324C419.31 63.0238 409.923 62.3778 404.532 56.1903C399.14 50.0043 399.785 40.6189 405.971 35.2269C412.158 29.8362 421.544 30.48 426.936 36.6669Z" fill="#A0C4F9"/>
<path d="M484.985 54.1847C484.212 54.4068 483.445 54.6554 482.668 54.8627C482.526 54.9001 482.292 54.8429 482.191 54.7407C481.535 54.0781 480.917 53.3782 480.257 52.7209C480.065 52.5298 479.996 52.391 480.084 52.1276C480.398 51.1986 480.686 50.2607 480.981 49.3267C481.03 49.1745 481.071 49.0215 481.15 48.7569C479.806 48.1943 478.476 47.6392 477.113 47.07C476.541 48.1133 476.006 49.0528 475.51 50.0136C475.335 50.3525 475.172 50.4799 474.754 50.4422C473.9 50.3644 473.035 50.4057 472.176 50.3736C472.044 50.3688 471.86 50.26 471.797 50.1454C471.316 49.2749 470.833 48.4041 470.407 47.5061C470.201 47.0755 469.959 47.0017 469.555 47.1701C469.4 47.2343 469.221 47.2437 469.053 47.2772C468.345 47.5594 467.639 47.8424 466.932 48.1246C466.865 48.1783 466.804 48.2449 466.729 48.2842C465.947 48.6969 466.054 48.5796 466.279 49.3745C466.553 50.3429 466.843 51.3067 467.09 52.1456C466.195 53.0303 465.359 53.8587 464.496 54.7131C463.349 54.3501 462.151 53.9714 460.945 53.5897C460.15 54.8485 459.635 56.1873 459.264 57.6129C460.291 58.1735 461.291 58.7231 462.295 59.2646C462.476 59.3623 462.561 59.449 462.547 59.6945C462.494 60.6539 462.465 61.6165 462.479 62.577C462.482 62.8546 462.396 62.9587 462.179 63.0702C461.281 63.5328 460.394 64.0152 459.498 64.4808C459.275 64.5974 459.184 64.7166 459.248 64.993C459.533 66.2362 460.067 67.3683 460.702 68.4622C460.828 68.6786 460.979 68.6572 461.182 68.5952C462.12 68.3078 463.064 68.0433 464.001 67.7494C464.27 67.6649 464.417 67.6944 464.622 67.9276C465.331 68.7364 466.088 69.5032 466.884 70.349C466.555 71.3907 466.18 72.573 465.807 73.7546C467.086 74.5713 468.412 75.1559 469.858 75.498C470.464 74.3734 471.054 73.2804 471.588 72.2894C472.637 72.2722 473.613 72.2801 474.584 72.2255C474.952 72.2045 475.135 72.3003 475.294 72.6248C475.719 73.4926 476.178 74.3441 476.632 75.1977C476.722 75.3662 476.789 75.6067 477.078 75.489C478.255 75.0087 479.431 74.5284 480.607 74.0473C480.857 73.9454 480.893 73.7788 480.814 73.5233C480.517 72.5736 480.262 71.6104 479.95 70.6652C479.83 70.3007 479.96 70.1271 480.212 69.8959C480.836 69.3271 481.451 68.7414 482.006 68.1086C482.246 67.836 482.404 67.7949 482.73 67.909C483.779 68.2728 484.841 68.5963 485.876 68.9286C486.454 68.2387 487.439 65.8662 487.586 64.8363C486.59 64.3044 485.59 63.7562 484.574 63.2362C484.321 63.1067 484.282 62.9659 484.29 62.6955C484.318 61.8225 484.283 60.9477 484.301 60.0729C484.303 59.9265 484.414 59.7156 484.538 59.6482C485.321 59.2201 486.119 58.8186 486.917 58.4186C487.364 58.1942 487.544 58.1052 487.566 57.8949L486.063 54.1304C485.842 53.9402 485.61 54.0057 484.985 54.1847ZM479.443 58.8481C480.788 62.2126 479.15 66.0303 475.785 67.3747C472.421 68.7177 468.604 67.0807 467.26 63.7155C465.916 60.351 467.554 56.5341 470.918 55.1903C474.283 53.8467 478.099 55.4836 479.443 58.8481Z" fill="#A0C4F9"/>
<path d="M384.311 241.184H388.011V295.276H384.311V241.184Z" fill="#1F4163"/>
<path d="M342.477 281.441C342.477 281.441 341.668 289.884 342.2 292.637C342.271 293.005 342.427 293.472 342.61 293.987C343.158 295.53 341.658 300.244 341.658 300.244L321.529 300.315C320.433 300.319 321.167 299.654 322.059 299.045C323.519 298.047 324.694 297.39 329.343 295.312C329.646 295.177 330.752 294.524 331.151 294.299C332.161 293.726 333.182 292.818 334.062 291.907C335.526 290.389 335.748 282.949 335.748 282.949L342.477 281.441Z" fill="#F7A896"/>
<path d="M331.155 294.296C336.46 295.662 340.405 294.823 342.617 294.002C343.165 295.543 344.106 301.334 343.491 301.334C338.444 301.334 334.262 301.668 319.8 301.45C319.282 301.442 319.345 299.742 319.683 299.367C320.616 298.33 330.755 294.523 331.155 294.296Z" fill="#3B3A3C"/>
<path d="M320.745 268.402C320.745 268.402 316.691 275.96 316.106 278.706C316.028 279.074 315.99 279.561 315.958 280.104C315.862 281.733 312.625 285.58 312.625 285.58L293.934 278.52C292.916 278.135 293.856 277.779 294.922 277.528C296.666 277.119 298.013 276.924 303.138 276.639C303.471 276.621 304.753 276.406 305.211 276.337C306.372 276.163 307.673 275.681 308.845 275.145C310.797 274.254 313.916 267.421 313.916 267.421L320.745 268.402Z" fill="#F7A896"/>
<path d="M305.114 276.496C309.595 279.503 313.6 279.996 315.972 279.941C315.928 281.569 315.008 286.806 314.431 286.606C309.697 284.967 305.36 284.441 291.874 279.543C291.391 279.367 292.066 277.788 292.518 277.544C293.769 276.873 304.657 276.58 305.114 276.496Z" fill="#3B3A3C"/>
<path d="M382.3 204.587V208.927L339.63 217.505L329.039 247.915L334.941 244.064L333.578 290.893L342.553 290.951C342.553 290.951 358.105 251.663 353.003 231.903L400.229 232.593C400.229 232.593 421.633 224.693 410.589 200.871L382.3 204.587Z" fill="#F7CE85"/>
<path d="M382.294 208.897C382.294 208.897 338.042 209.992 334.941 212.363C331.841 214.734 309.307 272.66 309.307 272.66L319.661 276.146C319.661 276.146 339.529 243.153 340.57 240.805C341.61 238.459 349.226 221.304 352.22 219.514C355.213 217.724 382.294 208.897 382.294 208.897Z" fill="#EBB45C"/>
<path d="M405.745 297.687H368.993C367.3 297.687 365.928 299.059 365.928 300.752C365.928 301.048 366.168 301.289 366.464 301.289H408.274C408.57 301.289 408.81 301.048 408.81 300.752C408.81 299.059 407.438 297.687 405.745 297.687Z" fill="#1F4163"/>
<path d="M388.617 295.276H384.115C382.783 295.276 381.703 296.356 381.703 297.688C381.703 299.02 382.783 300.098 384.115 300.098H388.617C389.949 300.098 391.029 299.02 391.029 297.688C391.029 296.356 389.949 295.276 388.617 295.276Z" fill="#1F4163"/>
<path d="M396.882 147.539C396.882 147.539 405.742 145.583 409.88 148.885C414.017 152.187 409.762 182.466 409.88 187.467C409.996 192.468 413.097 206.535 413.097 206.535C413.097 206.535 386.228 211.862 381.775 204.451C381.775 204.451 379.914 175.874 380.014 172.274C380.116 168.673 383.784 153.873 384.855 152.272C385.925 150.672 396.882 147.539 396.882 147.539Z" fill="#3B3A3C"/>
<path d="M395.914 133.694C395.914 133.694 395.978 133.957 396.09 134.404C396.63 136.547 398.637 143.642 399.81 145.554C401.228 147.863 396.106 155.84 390.654 155.251C389.031 155.075 391.568 148.161 391.381 147.457C391.022 146.11 390.534 144.274 390.036 142.389C389.754 141.327 389.469 140.249 389.201 139.237C388.44 136.358 387.818 134.005 387.818 134.005L395.914 133.694Z" fill="#F7A896"/>
<path d="M396.09 134.403C395.978 133.956 395.914 133.694 395.914 133.694L387.818 134.005C387.818 134.005 388.44 136.358 389.201 139.237C389.467 140.244 389.752 141.315 390.031 142.372C391.267 142.11 392.533 141.422 393.768 140.197C395.114 138.862 395.954 137.307 396.417 135.673C396.285 135.169 396.174 134.736 396.09 134.403Z" fill="#FF6C0E"/>
<path d="M389.313 115.704C389.313 115.704 393.095 115.024 395.678 117.955C398.26 120.886 401.437 130.255 395.833 135.812C390.229 141.37 383.997 135.876 382.734 129.711C381.472 123.546 380.657 116.026 389.313 115.704Z" fill="#F7A896"/>
<path d="M380.975 129.728C381.769 131.056 383.005 131.744 383.736 131.26C384.466 130.777 384.415 129.308 383.62 127.978C382.825 126.65 381.587 125.965 380.857 126.448C380.126 126.931 380.18 128.399 380.975 129.728Z" fill="#F7A896"/>
<path d="M388.821 114.712C388.821 114.712 394.484 123.454 398.151 123.643C401.818 123.832 402.602 128.618 402.602 128.618C402.602 128.618 400.597 117.601 396.857 115.69C393.118 113.777 388.821 114.712 388.821 114.712Z" fill="#F7CE85"/>
<path d="M397.343 125.98C397.149 127.609 397.838 129.047 398.882 129.194C399.926 129.339 400.93 128.138 401.124 126.51C401.319 124.881 400.63 123.443 399.585 123.297C398.542 123.15 397.538 124.352 397.343 125.98Z" fill="#F7A896"/>
<path d="M386.438 132.946L390.875 132.435C390.875 132.435 390.967 134.133 389.023 134.414C386.652 134.758 386.438 132.946 386.438 132.946Z" fill="white"/>
<path d="M405.31 229.35C405.31 229.35 361.305 230.103 356.718 229.35C352.13 228.597 350.144 234.348 351.513 237.361C352.883 240.374 356.649 241.538 362.196 241.812C367.742 242.086 413.892 243.387 415.193 242.154C416.255 241.148 430.245 193.317 435.335 175.826C436.353 172.33 434.346 168.677 430.853 167.651C427.375 166.631 423.726 168.604 422.675 172.072L405.31 229.35Z" fill="#FF6C0E"/>
<path d="M52.9215 241.261H49.1995V295.671H52.9215V241.261Z" fill="#1F4163"/>
<path d="M32.2584 298.097H69.2264C70.9294 298.097 72.3104 299.477 72.3104 301.18C72.3104 301.478 72.0674 301.719 71.7694 301.719H29.7134C29.4154 301.719 29.1744 301.478 29.1744 301.18C29.1744 299.477 30.5554 298.097 32.2584 298.097Z" fill="#1F4163"/>
<path d="M48.9105 295.671H53.4395C54.7785 295.671 55.8645 296.757 55.8645 298.097C55.8645 299.437 54.7785 300.523 53.4395 300.523H48.9105C47.5705 300.523 46.4845 299.437 46.4845 298.097C46.4845 296.757 47.5705 295.671 48.9105 295.671Z" fill="#1F4163"/>
<path d="M75.0124 234.998L72.4684 224.409C70.6904 217.004 64.1324 211.616 56.5214 211.308L24.3034 210.006L23.3094 206.726L56.6524 208.073C65.7024 208.44 73.5005 214.846 75.6164 223.653L78.3194 234.905C77.4044 234.944 76.2874 234.975 75.0124 234.998Z" fill="#3F5B8F"/>
<path d="M31.7975 229.358C31.7975 229.358 76.0625 230.116 80.6765 229.358C85.2915 228.6 87.2885 234.387 85.9115 237.417C84.5335 240.448 80.7455 241.619 75.1665 241.894C69.5875 242.17 23.1655 243.478 21.8565 242.239C20.7875 241.226 6.71446 193.114 1.59446 175.52C0.570455 172.003 2.58946 168.328 6.10346 167.297C9.60146 166.271 13.2745 168.255 14.3315 171.744L31.7975 229.358Z" fill="#F7CE85"/>
<path d="M171.602 162.879H134.675C133.698 162.879 132.817 163.47 132.447 164.374L121.078 192.105H100.719C100.15 192.105 99.6895 192.566 99.6895 193.135C99.6895 193.704 100.15 194.165 100.719 194.165H158.66C160.253 194.165 161.697 193.23 162.349 191.777L173.798 166.274C174.513 164.681 173.348 162.879 171.602 162.879Z" fill="#8CB5F2"/>
<path d="M151.72 179.027C151.471 180.273 150.384 181.105 149.293 180.888C148.202 180.669 147.519 179.483 147.769 178.237C148.018 176.992 149.105 176.159 150.196 176.377C151.286 176.595 151.969 177.781 151.72 179.027Z" fill="white"/>
<path d="M296.289 162.879H333.215C334.192 162.879 335.073 163.47 335.443 164.374L346.812 192.105H367.171C367.74 192.105 368.202 192.566 368.202 193.135C368.202 193.704 367.74 194.165 367.171 194.165H309.23C307.637 194.165 306.192 193.23 305.54 191.777L294.091 166.274C293.376 164.681 294.543 162.879 296.289 162.879Z" fill="#6B99DC"/>
<path d="M316.171 179.027C316.42 180.273 317.506 181.105 318.597 180.888C319.687 180.669 320.369 179.483 320.12 178.237C319.871 176.992 318.784 176.159 317.693 176.377C316.603 176.595 315.921 177.781 316.171 179.027Z" fill="white"/>
<path d="M94.574 200.355H367.946C368.447 200.355 368.852 199.949 368.852 199.449V195.07C368.852 194.569 368.447 194.163 367.946 194.163H94.574C94.074 194.163 93.668 194.569 93.668 195.07V199.449C93.668 199.949 94.074 200.355 94.574 200.355Z" fill="#1F4163"/>
<path d="M355.121 302.21H359.527L350.034 200.354H345.627L355.121 302.21Z" fill="#1F4163"/>
<path d="M317.681 302.21H313.275L322.768 200.354H327.175L317.681 302.21Z" fill="#1F4163"/>
<path d="M142.363 302.21H146.769L137.276 200.354H132.869L142.363 302.21Z" fill="#1F4163"/>
<path d="M281.917 145.867C281.671 146.67 281.533 146.935 281.227 147.473C279.258 150.941 274.733 155.865 274.733 155.865L271.397 148.052C271.397 148.052 271.993 145.622 273.016 142.151C276.333 143.067 279.495 143.615 281.917 145.867Z" fill="#F8A897"/>
<path d="M262.255 138.854C262.255 138.854 281.358 147.403 281.981 147.253C282.383 147.156 290.043 134.736 290.29 122.959C290.403 117.519 284.845 110.895 278.524 112.099C275.341 112.707 275.378 113.59 270.586 120.346C265.795 127.103 262.255 138.854 262.255 138.854Z" fill="#E6B464"/>
<path d="M245.215 287.212C245.215 287.212 245.671 294.761 245.674 294.777C245.841 295.735 246.5 298.103 246.5 298.974C246.5 302.248 230.957 296.196 234.441 294.745C234.756 294.614 236.408 293.621 236.512 292.507C236.671 290.79 237.077 287.318 237.077 287.318L245.215 287.212Z" fill="#F7A896"/>
<path d="M233.934 294.473C233.934 294.473 237.648 295.592 239.551 295.871C241.453 296.151 243.963 293.796 245.309 294.432C246.79 295.132 246.731 301.434 246.731 301.434C246.731 301.434 226.809 303.228 221.207 301.372C218.988 300.637 226.339 297.079 233.934 294.473Z" fill="#DE5A44"/>
<path d="M277.01 287.212C277.01 287.212 277.466 294.761 277.469 294.777C277.636 295.735 278.297 298.103 278.297 298.974C278.297 302.248 262.753 296.196 266.237 294.745C266.552 294.614 268.694 292.879 268.797 291.766C268.957 290.049 268.873 287.318 268.873 287.318L277.01 287.212Z" fill="#F7A896"/>
<path d="M266.304 294.473C266.304 294.473 270.019 295.592 271.922 295.871C273.824 296.151 276.333 293.796 277.679 294.432C279.16 295.132 279.219 301.434 279.219 301.434C279.219 301.434 259.207 303.526 253.578 301.372C251.393 300.536 258.709 297.079 266.304 294.473Z" fill="#DE5A44"/>
<path d="M272.688 150.051L259.627 130.44C259.574 130.271 259.463 129.924 259.29 129.393C258.662 127.469 257.356 123.465 256.234 119.487L256.222 119.444C255.874 118.055 255.121 115.629 254.391 113.28C253.58 110.668 252.574 107.43 252.553 106.883C252.591 106.79 252.66 106.625 252.753 106.405C253.297 105.119 254.076 102.04 254.36 100.699C254.541 99.8455 254.76 97.7625 253.74 97.7294C252.135 97.6774 252.832 99.7871 252.05 101.065C251.806 100.186 251.312 98.4421 251.078 96.6856L250.943 92.6021C250.901 92.2926 251.3 90.0553 250.175 90.0188L250.122 90.0191C249.108 90.0603 249.053 92.4508 248.502 96.48C248.384 96.0099 248.269 95.4449 248.186 94.926C248.207 94.6495 248.042 93.4285 247.911 92.7819C248.151 91.6621 248.09 89.8812 246.885 90.0102C246.282 90.0747 246.251 92.556 246.251 92.556C246.246 92.8961 246.196 95.5188 246.162 96.036C246.066 95.1524 245.707 91.3858 244.767 91.3553C243.986 91.33 243.89 92.3374 243.881 93.1365C243.875 93.6096 244.235 97.6904 244.247 98.164C243.899 97.5354 243.579 93.9392 243.215 93.9274C241.693 93.878 242.078 98.9882 242.594 100.334C242.642 100.471 242.689 100.739 242.744 101.05C242.905 101.964 243.174 103.492 243.926 104.881C244.828 106.546 246.062 109.188 246.25 109.593C246.371 110.409 246.734 113.344 247.191 117.035C247.387 118.615 247.601 120.346 247.825 122.141L247.84 122.138C247.879 122.527 248.125 123.764 249.058 128.407C250.334 134.761 250.478 135.037 250.54 135.156C251.146 136.316 265.249 156.827 265.849 157.699L266.204 158.214L272.688 150.051Z" fill="#F7A896"/>
<path d="M248.689 104.522C248.689 104.522 249.89 101.72 251.868 101.778C251.868 101.778 250.776 101.344 249.804 102.063C248.832 102.782 248.689 104.522 248.689 104.522Z" fill="#FF6C0E"/>
<path d="M276.968 99.8413L278.367 111.038C278.367 111.038 271.482 116.209 267.606 114.945C264.354 113.885 266.744 109.666 266.744 109.666C266.744 109.666 268.686 103.777 268.25 100.642C267.815 97.5085 276.968 99.8413 276.968 99.8413Z" fill="#F7A896"/>
<path d="M275.594 103.168C273.886 103.908 270.526 104.883 267.929 105.062C268.227 103.511 268.422 101.866 268.251 100.642C268.051 99.196 269.892 98.9145 271.934 99.0307C274.599 99.3462 276.968 99.8413 276.968 99.8413L277.237 101.992C276.711 102.512 276.164 102.921 275.594 103.168Z" fill="#FE8D66"/>
<path d="M285.854 87.2666C286.131 87.2766 282.798 99.626 278.194 101.62C273.591 103.613 266.864 102.278 265.704 98.8857C264.421 95.1331 269.952 82.6038 276.382 81.1984C282.811 79.792 285.854 87.2666 285.854 87.2666Z" fill="#F7A896"/>
<path d="M280.979 75.6635C284.533 77.8698 286.094 81.022 286.612 82.3085C288.285 83.1702 290.286 84.982 291.121 89.7155C292.148 95.5349 287.686 99.8505 283.067 101.042C278.448 102.234 277.643 105.24 277.643 105.24L277.23 101.965C277.23 101.965 278.34 99.1613 279.916 97.7907C281.493 96.4201 279.305 94.278 279.161 92.5835C279.051 91.2782 280.089 88.7845 279.951 86.6449C279.951 86.6449 277.533 82.7105 275.058 81.6768C270.837 79.9151 276.419 72.8322 280.979 75.6635Z" fill="#1F4163"/>
<path d="M278.43 94.727C277.791 96.145 277.987 97.5801 278.868 97.9319C279.749 98.2836 280.982 97.4191 281.621 96.0011C282.26 94.583 282.063 93.1489 281.182 92.7972C280.302 92.4445 279.07 93.309 278.43 94.727Z" fill="#F7A896"/>
<path d="M259.546 150.68L233.435 144.846C233.435 144.846 236.875 137.471 237.946 137.533C239.018 137.596 257.399 146.928 257.399 146.928L258.724 150.028L259.546 150.68Z" fill="#F8A897"/>
<path d="M273.491 168.137C273.491 168.137 276.124 180.872 275.051 190.527C273.977 200.183 273.894 234.484 273.894 234.484L277.99 289.365L268.271 289.578C268.271 289.578 256.745 234.722 256.96 236.13C257.174 237.538 253.094 197.507 253.094 197.507L266.835 166.93L273.491 168.137Z" fill="#6B99DC"/>
<path d="M270.915 167.534C270.915 167.534 272.632 179 270.486 184.029C268.339 189.058 252.07 238.403 251.856 242.426C251.641 246.449 246.231 290.919 246.231 290.919L234.93 290.601L232.484 241.16L237.604 179.02L242.575 163.309L270.915 167.534Z" fill="#8CB5F2"/>
<path d="M277.33 110.653C277.33 110.653 274.542 112.482 271.943 112.27C269.343 112.058 265.668 109.659 265.668 109.659L266.179 107.928C266.179 107.928 272.903 106.948 273.073 107.054C273.242 107.16 277.33 110.653 277.33 110.653Z" fill="#F7A896"/>
<path d="M247.94 137.742C247.94 137.742 237.42 146.572 233.012 144.702C228.606 142.834 227.063 137.233 238.513 129.838C248.76 123.22 247.94 137.742 247.94 137.742Z" fill="#F8A897"/>
<path d="M241.342 149.183C242.94 141.133 254.046 116.167 254.97 111.553C255.42 109.309 261.22 109.341 266.74 109.713C272.571 110.105 278.358 110.926 278.358 110.926C278.358 110.926 283.511 111.848 285.753 114.01C287.996 116.172 288.518 122.069 285.092 133.202C282.389 141.992 279.122 146.793 277.449 153.199C277.098 155.352 276.794 157.475 276.395 159.955C275.678 169.56 276.087 182.267 276.087 182.267C276.087 182.267 247.882 187.701 237.488 178.702C237.488 178.702 239.705 157.43 241.342 149.183Z" fill="#F7CE85"/>
<path d="M234.303 131.525C234.303 131.525 245.131 140.879 245.776 140.894C246.19 140.903 261.773 129.971 265.519 120.786C267.59 115.708 263.616 109.886 258.929 109.8C255.679 109.74 254.217 110.544 247.656 115.831C241.094 121.116 234.303 131.525 234.303 131.525Z" fill="#E6B464"/>
<path d="M104.922 302.21H100.516L110.009 200.354H114.416L104.922 302.21Z" fill="#1F4163"/>
<path d="M432.644 303.096H17.6759C17.2369 303.096 16.8809 302.74 16.8809 302.301V302.135C16.8809 301.696 17.2369 301.34 17.6759 301.34H432.644C433.083 301.34 433.439 301.696 433.439 302.135V302.301C433.439 302.74 433.083 303.096 432.644 303.096Z" fill="#3B3A3C"/>
<path d="M357.604 176.281C357.31 175.385 361.645 174.748 361.893 173.853C362.139 172.957 356.452 172.783 356.263 171.989C355.914 170.527 362.503 171.797 362.386 171.115C362.268 170.432 355.538 168.787 356.29 167.632C357.041 166.478 363.09 170.066 363.29 169.277C363.49 168.488 357.365 166.447 357.508 164.712C357.584 163.785 367.533 169.529 368.708 169.046C369.884 168.562 367.544 164.153 368.484 163.522C369.424 162.892 371.913 172.458 372.548 172.788C373.18 173.116 386.62 181.119 391.429 182.441C392.047 180.833 396.42 172.329 396.966 170.808C399.642 172.788 402.779 173.267 405.545 175.078C403.425 180.121 396.228 192.501 394.803 193.113C390.467 194.976 374.089 180.876 370.813 178.454C367.534 176.029 365.619 176.76 363.385 175.972C361.153 175.184 357.897 177.175 357.604 176.281Z" fill="#F7A896"/>
<path d="M406.861 176.345C406.861 176.345 412.685 163.315 413.559 158.263C414.435 153.211 410.083 146.886 405.547 147.31C401.01 147.733 394.283 170.22 394.283 170.22L406.861 176.345Z" fill="#9BDACB"/>
<path d="M265.46 94.8121L269.594 96.6751C269.594 96.6751 268.792 98.2021 266.95 97.4361C264.704 96.5021 265.46 94.8121 265.46 94.8121Z" fill="white"/>
<path d="M471.008 98.1291C469.658 98.0289 468.306 97.9762 466.959 97.8493C466.714 97.8269 466.379 97.5985 466.278 97.3766C465.63 95.9499 465.062 94.4853 464.405 93.0637C464.213 92.6498 464.185 92.3913 464.479 92.0271C465.514 90.7436 466.514 89.4336 467.526 88.1316C467.69 87.9209 467.847 87.7044 468.125 87.3325C466.331 85.6625 464.558 84.0114 462.74 82.3185C461.23 83.6305 459.838 84.8018 458.496 86.0277C458.023 86.4597 457.691 86.5657 457.054 86.2624C455.751 85.6422 454.363 85.2039 453.027 84.6509C452.822 84.5665 452.596 84.2887 452.563 84.0717C452.312 82.418 452.059 80.7618 451.909 79.0971C451.837 78.2981 451.497 78.0406 450.761 78.0699C450.478 78.0815 450.192 77.9907 449.906 77.9471C448.626 77.9802 447.346 78.0125 446.066 78.0463C445.93 78.0922 445.795 78.1633 445.654 78.1817C444.181 78.3762 444.416 78.2533 444.308 79.6385C444.176 81.3256 444.072 83.0142 443.972 84.4795C442.044 85.3549 440.244 86.1739 438.383 87.0184C436.787 85.778 435.119 84.4817 433.44 83.1763C431.451 84.6989 429.857 86.51 428.44 88.5432C429.734 90.0271 430.992 91.476 432.26 92.9155C432.488 93.1743 432.571 93.3605 432.407 93.74C431.763 95.2225 431.157 96.7248 430.618 98.2479C430.462 98.6869 430.266 98.7996 429.857 98.8498C428.172 99.0547 426.491 99.3007 424.807 99.5128C424.388 99.5654 424.175 99.7003 424.114 100.174C423.838 102.3 424.022 104.398 424.386 106.493C424.457 106.908 424.708 106.962 425.064 106.982C426.711 107.076 428.356 107.21 430.004 107.292C430.478 107.316 430.693 107.448 430.88 107.936C431.527 109.625 432.274 111.275 433.038 113.073C431.911 114.524 430.631 116.172 429.351 117.818C430.893 119.85 432.645 121.546 434.726 122.927C436.338 121.508 437.904 120.128 439.324 118.877C440.989 119.46 442.523 120.041 444.088 120.522C444.679 120.703 444.914 120.961 444.976 121.568C445.14 123.183 445.367 124.793 445.585 126.402C445.629 126.721 445.595 127.14 446.12 127.122C448.255 127.05 450.391 126.98 452.527 126.908C452.981 126.892 453.132 126.649 453.155 126.2C453.242 124.529 453.402 122.861 453.461 121.19C453.483 120.544 453.79 120.345 454.322 120.129C455.637 119.595 456.949 119.032 458.194 118.357C458.732 118.065 459.005 118.093 459.452 118.462C460.894 119.648 462.381 120.776 463.819 121.904C465.133 121.152 468.071 117.985 468.902 116.445C467.642 115.026 466.384 113.579 465.085 112.167C464.761 111.814 464.782 111.57 464.954 111.148C465.504 109.787 465.96 108.386 466.498 107.018C466.588 106.788 466.884 106.519 467.118 106.485C468.603 106.267 470.097 106.1 471.589 105.932C472.423 105.839 472.759 105.805 472.917 105.486L472.74 98.673C472.504 98.2444 472.099 98.2104 471.008 98.1291ZM459.55 102.255C459.708 108.346 454.9 113.411 448.809 113.569C442.72 113.728 437.653 108.92 437.496 102.83C437.337 96.7397 442.147 91.6745 448.237 91.5153C454.327 91.3576 459.391 96.1648 459.55 102.255Z" fill="#CCE2F9"/>
</svg>
