<svg xmlns="http://www.w3.org/2000/svg" viewBox="0 0 160 64"><path d="M58.406 44.112h-3.5a.867.867 0 01-.868-.867v-3.613c0-.479.389-.867.868-.867h2.918a1.232 1.232 0 001.056-1.847l-3.28-5.737-3.28-5.719a1.229 1.229 0 00-2.131 0l-3.28 5.719-3.293 5.737a1.235 1.235 0 001.072 1.847h2.918c.48 0 .868.388.868.867v3.613a.867.867 0 01-.868.867h-3.52a6.24 6.24 0 01-5.41-9.347l3.615-6.285 3.552-6.189a6.138 6.138 0 013.84-2.937 6.32 6.32 0 011.565-.199 6.186 6.186 0 015.414 3.136l3.556 6.189 3.603 6.275a6.24 6.24 0 01-5.415 9.357zm-49.232-.78a9.795 9.795 0 004.007.806 10.851 10.851 0 008.224-3.556c2.227-2.37 3.34-5.277 3.34-8.723 0-3.445-1.101-6.345-3.305-8.7a10.694 10.694 0 00-8.131-3.52 9.738 9.738 0 00-4.195.902 9.235 9.235 0 00-3.296 2.608v-3.095H0V52.48h6.022V40.96a8.672 8.672 0 003.152 2.371zM7.75 27.068a6.109 6.109 0 014.576-1.943 6.08 6.08 0 014.573 1.968 6.72 6.72 0 011.875 4.8 6.72 6.72 0 01-1.875 4.8 6.08 6.08 0 01-4.573 1.968A6.109 6.109 0 017.75 36.72a6.7 6.7 0 01-1.872-4.816 6.72 6.72 0 011.872-4.835zM28.48 11.52v32.237h5.984V11.52H28.48zm54.035 8.582l-6.467 13.581-5.923-13.58H63.45l9.216 20.278-5.863 12.099h6.509l15.68-32.378h-6.477zm14.65 21.677c-.28-.31-.42-.883-.42-1.721v-7.719h2.685v-1.9h-2.684v-3.412H94.62v3.411h-2.125v1.901h2.125v7.943c0 1.418.289 2.425.867 3.02.58.596 1.549.896 2.909.896h1.091V42.24h-.813c-.717 0-1.22-.154-1.51-.46zm9.974-11.565a3.686 3.686 0 00-1.801.436 3.808 3.808 0 00-1.386 1.35v-1.568h-2.096v13.76h2.125v-8.554c-.041-.854.21-1.698.713-2.39a2.336 2.336 0 011.943-.909c.227 0 .452.03.672.087.256.072.5.18.726.32l1.146-1.959a2.678 2.678 0 00-.88-.406 4.279 4.279 0 00-1.162-.167zm14.608 2.49a6.432 6.432 0 00-5.12-2.49 6.82 6.82 0 00-5.033 2.055 6.9 6.9 0 00-2.042 5.05 6.925 6.925 0 002 5.087 6.81 6.81 0 005.046 2.013 6.371 6.371 0 002.88-.64 6.774 6.774 0 002.27-1.859v2.266h2.07v-13.76h-2.07v2.278zm-1.465 8.278a4.826 4.826 0 01-3.568 1.453 4.758 4.758 0 01-3.536-1.475 5.005 5.005 0 01-1.44-3.648 5.053 5.053 0 011.44-3.664 4.733 4.733 0 013.536-1.482 4.8 4.8 0 013.568 1.47 5.04 5.04 0 011.44 3.676 4.995 4.995 0 01-1.44 3.67zm27.584-10.768a6.893 6.893 0 00-5.079 2c-1.331 1.336-1.997 3.043-1.997 5.12 0 2.106.652 3.813 1.956 5.12 1.303 1.308 3.001 1.963 5.094 1.965a7.322 7.322 0 004.125-1.187 6.95 6.95 0 002.643-3.2h-2.378a4.89 4.89 0 01-1.846 1.776 5.206 5.206 0 01-2.544.64 4.669 4.669 0 01-3.328-1.232 4.95 4.95 0 01-1.51-3.27h11.856a.94.94 0 00.028-.237v-.39c0-2.07-.66-3.777-1.984-5.12a6.81 6.81 0 00-5.036-1.985zm-4.8 5.984a4.8 4.8 0 011.625-2.918c.88-.74 2-1.133 3.149-1.107a4.646 4.646 0 014.726 4.025h-9.5zm14.819-11.017v19.017H160V25.181h-2.115zM133.04 41.626h-.058l-5.382-11.2h-2.208l6.669 13.76h1.9l6.67-13.76h-2.209l-5.382 11.2z" fill="#42164c"/></svg>